G75*
%MOIN*%
%OFA0B0*%
%FSLAX25Y25*%
%IPPOS*%
%LPD*%
%AMOC8*
5,1,8,0,0,1.08239X$1,22.5*
%
%ADD10C,0.00394*%
%ADD11C,0.00000*%
%ADD12C,0.00400*%
D10*
X0027328Y0036123D02*
X0028128Y0036123D01*
X0409728Y0036123D01*
X0409828Y0036123D01*
X0415428Y0036124D02*
X0415429Y0036123D01*
X0415428Y0041723D02*
X0415428Y0266723D01*
X0415429Y0266724D01*
X0409749Y0272343D02*
X0409728Y0272323D01*
X0027319Y0272343D01*
X0021728Y0266923D01*
X0021728Y0043723D01*
D11*
X0025828Y0051123D02*
X0025830Y0051276D01*
X0025836Y0051429D01*
X0025846Y0051582D01*
X0025860Y0051735D01*
X0025878Y0051887D01*
X0025899Y0052038D01*
X0025925Y0052189D01*
X0025955Y0052340D01*
X0025988Y0052489D01*
X0026026Y0052638D01*
X0026067Y0052785D01*
X0026112Y0052932D01*
X0026161Y0053077D01*
X0026213Y0053221D01*
X0026270Y0053363D01*
X0026330Y0053504D01*
X0026393Y0053643D01*
X0026461Y0053781D01*
X0026531Y0053917D01*
X0026606Y0054051D01*
X0026683Y0054183D01*
X0026765Y0054313D01*
X0026849Y0054441D01*
X0026937Y0054566D01*
X0027028Y0054689D01*
X0027122Y0054810D01*
X0027219Y0054928D01*
X0027320Y0055044D01*
X0027423Y0055157D01*
X0027529Y0055268D01*
X0027638Y0055375D01*
X0027750Y0055480D01*
X0027864Y0055582D01*
X0027981Y0055681D01*
X0028101Y0055776D01*
X0028223Y0055869D01*
X0028347Y0055958D01*
X0028474Y0056045D01*
X0028603Y0056127D01*
X0028734Y0056207D01*
X0028867Y0056283D01*
X0029002Y0056355D01*
X0029139Y0056424D01*
X0029277Y0056490D01*
X0029417Y0056552D01*
X0029559Y0056610D01*
X0029702Y0056664D01*
X0029847Y0056715D01*
X0029992Y0056762D01*
X0030139Y0056805D01*
X0030287Y0056844D01*
X0030436Y0056880D01*
X0030586Y0056911D01*
X0030737Y0056939D01*
X0030888Y0056963D01*
X0031040Y0056983D01*
X0031193Y0056999D01*
X0031345Y0057011D01*
X0031498Y0057019D01*
X0031651Y0057023D01*
X0031805Y0057023D01*
X0031958Y0057019D01*
X0032111Y0057011D01*
X0032263Y0056999D01*
X0032416Y0056983D01*
X0032568Y0056963D01*
X0032719Y0056939D01*
X0032870Y0056911D01*
X0033020Y0056880D01*
X0033169Y0056844D01*
X0033317Y0056805D01*
X0033464Y0056762D01*
X0033609Y0056715D01*
X0033754Y0056664D01*
X0033897Y0056610D01*
X0034039Y0056552D01*
X0034179Y0056490D01*
X0034317Y0056424D01*
X0034454Y0056355D01*
X0034589Y0056283D01*
X0034722Y0056207D01*
X0034853Y0056127D01*
X0034982Y0056045D01*
X0035109Y0055958D01*
X0035233Y0055869D01*
X0035355Y0055776D01*
X0035475Y0055681D01*
X0035592Y0055582D01*
X0035706Y0055480D01*
X0035818Y0055375D01*
X0035927Y0055268D01*
X0036033Y0055157D01*
X0036136Y0055044D01*
X0036237Y0054928D01*
X0036334Y0054810D01*
X0036428Y0054689D01*
X0036519Y0054566D01*
X0036607Y0054441D01*
X0036691Y0054313D01*
X0036773Y0054183D01*
X0036850Y0054051D01*
X0036925Y0053917D01*
X0036995Y0053781D01*
X0037063Y0053643D01*
X0037126Y0053504D01*
X0037186Y0053363D01*
X0037243Y0053221D01*
X0037295Y0053077D01*
X0037344Y0052932D01*
X0037389Y0052785D01*
X0037430Y0052638D01*
X0037468Y0052489D01*
X0037501Y0052340D01*
X0037531Y0052189D01*
X0037557Y0052038D01*
X0037578Y0051887D01*
X0037596Y0051735D01*
X0037610Y0051582D01*
X0037620Y0051429D01*
X0037626Y0051276D01*
X0037628Y0051123D01*
X0037626Y0050970D01*
X0037620Y0050817D01*
X0037610Y0050664D01*
X0037596Y0050511D01*
X0037578Y0050359D01*
X0037557Y0050208D01*
X0037531Y0050057D01*
X0037501Y0049906D01*
X0037468Y0049757D01*
X0037430Y0049608D01*
X0037389Y0049461D01*
X0037344Y0049314D01*
X0037295Y0049169D01*
X0037243Y0049025D01*
X0037186Y0048883D01*
X0037126Y0048742D01*
X0037063Y0048603D01*
X0036995Y0048465D01*
X0036925Y0048329D01*
X0036850Y0048195D01*
X0036773Y0048063D01*
X0036691Y0047933D01*
X0036607Y0047805D01*
X0036519Y0047680D01*
X0036428Y0047557D01*
X0036334Y0047436D01*
X0036237Y0047318D01*
X0036136Y0047202D01*
X0036033Y0047089D01*
X0035927Y0046978D01*
X0035818Y0046871D01*
X0035706Y0046766D01*
X0035592Y0046664D01*
X0035475Y0046565D01*
X0035355Y0046470D01*
X0035233Y0046377D01*
X0035109Y0046288D01*
X0034982Y0046201D01*
X0034853Y0046119D01*
X0034722Y0046039D01*
X0034589Y0045963D01*
X0034454Y0045891D01*
X0034317Y0045822D01*
X0034179Y0045756D01*
X0034039Y0045694D01*
X0033897Y0045636D01*
X0033754Y0045582D01*
X0033609Y0045531D01*
X0033464Y0045484D01*
X0033317Y0045441D01*
X0033169Y0045402D01*
X0033020Y0045366D01*
X0032870Y0045335D01*
X0032719Y0045307D01*
X0032568Y0045283D01*
X0032416Y0045263D01*
X0032263Y0045247D01*
X0032111Y0045235D01*
X0031958Y0045227D01*
X0031805Y0045223D01*
X0031651Y0045223D01*
X0031498Y0045227D01*
X0031345Y0045235D01*
X0031193Y0045247D01*
X0031040Y0045263D01*
X0030888Y0045283D01*
X0030737Y0045307D01*
X0030586Y0045335D01*
X0030436Y0045366D01*
X0030287Y0045402D01*
X0030139Y0045441D01*
X0029992Y0045484D01*
X0029847Y0045531D01*
X0029702Y0045582D01*
X0029559Y0045636D01*
X0029417Y0045694D01*
X0029277Y0045756D01*
X0029139Y0045822D01*
X0029002Y0045891D01*
X0028867Y0045963D01*
X0028734Y0046039D01*
X0028603Y0046119D01*
X0028474Y0046201D01*
X0028347Y0046288D01*
X0028223Y0046377D01*
X0028101Y0046470D01*
X0027981Y0046565D01*
X0027864Y0046664D01*
X0027750Y0046766D01*
X0027638Y0046871D01*
X0027529Y0046978D01*
X0027423Y0047089D01*
X0027320Y0047202D01*
X0027219Y0047318D01*
X0027122Y0047436D01*
X0027028Y0047557D01*
X0026937Y0047680D01*
X0026849Y0047805D01*
X0026765Y0047933D01*
X0026683Y0048063D01*
X0026606Y0048195D01*
X0026531Y0048329D01*
X0026461Y0048465D01*
X0026393Y0048603D01*
X0026330Y0048742D01*
X0026270Y0048883D01*
X0026213Y0049025D01*
X0026161Y0049169D01*
X0026112Y0049314D01*
X0026067Y0049461D01*
X0026026Y0049608D01*
X0025988Y0049757D01*
X0025955Y0049906D01*
X0025925Y0050057D01*
X0025899Y0050208D01*
X0025878Y0050359D01*
X0025860Y0050511D01*
X0025846Y0050664D01*
X0025836Y0050817D01*
X0025830Y0050970D01*
X0025828Y0051123D01*
X0225429Y0051123D02*
X0225431Y0051281D01*
X0225437Y0051439D01*
X0225447Y0051597D01*
X0225461Y0051755D01*
X0225479Y0051912D01*
X0225500Y0052069D01*
X0225526Y0052225D01*
X0225556Y0052381D01*
X0225589Y0052536D01*
X0225627Y0052689D01*
X0225668Y0052842D01*
X0225713Y0052994D01*
X0225762Y0053145D01*
X0225815Y0053294D01*
X0225871Y0053442D01*
X0225931Y0053588D01*
X0225995Y0053733D01*
X0226063Y0053876D01*
X0226134Y0054018D01*
X0226208Y0054158D01*
X0226286Y0054295D01*
X0226368Y0054431D01*
X0226452Y0054565D01*
X0226541Y0054696D01*
X0226632Y0054825D01*
X0226727Y0054952D01*
X0226824Y0055077D01*
X0226925Y0055199D01*
X0227029Y0055318D01*
X0227136Y0055435D01*
X0227246Y0055549D01*
X0227359Y0055660D01*
X0227474Y0055769D01*
X0227592Y0055874D01*
X0227713Y0055976D01*
X0227836Y0056076D01*
X0227962Y0056172D01*
X0228090Y0056265D01*
X0228220Y0056355D01*
X0228353Y0056441D01*
X0228488Y0056525D01*
X0228624Y0056604D01*
X0228763Y0056681D01*
X0228904Y0056753D01*
X0229046Y0056823D01*
X0229190Y0056888D01*
X0229336Y0056950D01*
X0229483Y0057008D01*
X0229632Y0057063D01*
X0229782Y0057114D01*
X0229933Y0057161D01*
X0230085Y0057204D01*
X0230238Y0057243D01*
X0230393Y0057279D01*
X0230548Y0057310D01*
X0230704Y0057338D01*
X0230860Y0057362D01*
X0231017Y0057382D01*
X0231175Y0057398D01*
X0231332Y0057410D01*
X0231491Y0057418D01*
X0231649Y0057422D01*
X0231807Y0057422D01*
X0231965Y0057418D01*
X0232124Y0057410D01*
X0232281Y0057398D01*
X0232439Y0057382D01*
X0232596Y0057362D01*
X0232752Y0057338D01*
X0232908Y0057310D01*
X0233063Y0057279D01*
X0233218Y0057243D01*
X0233371Y0057204D01*
X0233523Y0057161D01*
X0233674Y0057114D01*
X0233824Y0057063D01*
X0233973Y0057008D01*
X0234120Y0056950D01*
X0234266Y0056888D01*
X0234410Y0056823D01*
X0234552Y0056753D01*
X0234693Y0056681D01*
X0234832Y0056604D01*
X0234968Y0056525D01*
X0235103Y0056441D01*
X0235236Y0056355D01*
X0235366Y0056265D01*
X0235494Y0056172D01*
X0235620Y0056076D01*
X0235743Y0055976D01*
X0235864Y0055874D01*
X0235982Y0055769D01*
X0236097Y0055660D01*
X0236210Y0055549D01*
X0236320Y0055435D01*
X0236427Y0055318D01*
X0236531Y0055199D01*
X0236632Y0055077D01*
X0236729Y0054952D01*
X0236824Y0054825D01*
X0236915Y0054696D01*
X0237004Y0054565D01*
X0237088Y0054431D01*
X0237170Y0054295D01*
X0237248Y0054158D01*
X0237322Y0054018D01*
X0237393Y0053876D01*
X0237461Y0053733D01*
X0237525Y0053588D01*
X0237585Y0053442D01*
X0237641Y0053294D01*
X0237694Y0053145D01*
X0237743Y0052994D01*
X0237788Y0052842D01*
X0237829Y0052689D01*
X0237867Y0052536D01*
X0237900Y0052381D01*
X0237930Y0052225D01*
X0237956Y0052069D01*
X0237977Y0051912D01*
X0237995Y0051755D01*
X0238009Y0051597D01*
X0238019Y0051439D01*
X0238025Y0051281D01*
X0238027Y0051123D01*
X0238025Y0050965D01*
X0238019Y0050807D01*
X0238009Y0050649D01*
X0237995Y0050491D01*
X0237977Y0050334D01*
X0237956Y0050177D01*
X0237930Y0050021D01*
X0237900Y0049865D01*
X0237867Y0049710D01*
X0237829Y0049557D01*
X0237788Y0049404D01*
X0237743Y0049252D01*
X0237694Y0049101D01*
X0237641Y0048952D01*
X0237585Y0048804D01*
X0237525Y0048658D01*
X0237461Y0048513D01*
X0237393Y0048370D01*
X0237322Y0048228D01*
X0237248Y0048088D01*
X0237170Y0047951D01*
X0237088Y0047815D01*
X0237004Y0047681D01*
X0236915Y0047550D01*
X0236824Y0047421D01*
X0236729Y0047294D01*
X0236632Y0047169D01*
X0236531Y0047047D01*
X0236427Y0046928D01*
X0236320Y0046811D01*
X0236210Y0046697D01*
X0236097Y0046586D01*
X0235982Y0046477D01*
X0235864Y0046372D01*
X0235743Y0046270D01*
X0235620Y0046170D01*
X0235494Y0046074D01*
X0235366Y0045981D01*
X0235236Y0045891D01*
X0235103Y0045805D01*
X0234968Y0045721D01*
X0234832Y0045642D01*
X0234693Y0045565D01*
X0234552Y0045493D01*
X0234410Y0045423D01*
X0234266Y0045358D01*
X0234120Y0045296D01*
X0233973Y0045238D01*
X0233824Y0045183D01*
X0233674Y0045132D01*
X0233523Y0045085D01*
X0233371Y0045042D01*
X0233218Y0045003D01*
X0233063Y0044967D01*
X0232908Y0044936D01*
X0232752Y0044908D01*
X0232596Y0044884D01*
X0232439Y0044864D01*
X0232281Y0044848D01*
X0232124Y0044836D01*
X0231965Y0044828D01*
X0231807Y0044824D01*
X0231649Y0044824D01*
X0231491Y0044828D01*
X0231332Y0044836D01*
X0231175Y0044848D01*
X0231017Y0044864D01*
X0230860Y0044884D01*
X0230704Y0044908D01*
X0230548Y0044936D01*
X0230393Y0044967D01*
X0230238Y0045003D01*
X0230085Y0045042D01*
X0229933Y0045085D01*
X0229782Y0045132D01*
X0229632Y0045183D01*
X0229483Y0045238D01*
X0229336Y0045296D01*
X0229190Y0045358D01*
X0229046Y0045423D01*
X0228904Y0045493D01*
X0228763Y0045565D01*
X0228624Y0045642D01*
X0228488Y0045721D01*
X0228353Y0045805D01*
X0228220Y0045891D01*
X0228090Y0045981D01*
X0227962Y0046074D01*
X0227836Y0046170D01*
X0227713Y0046270D01*
X0227592Y0046372D01*
X0227474Y0046477D01*
X0227359Y0046586D01*
X0227246Y0046697D01*
X0227136Y0046811D01*
X0227029Y0046928D01*
X0226925Y0047047D01*
X0226824Y0047169D01*
X0226727Y0047294D01*
X0226632Y0047421D01*
X0226541Y0047550D01*
X0226452Y0047681D01*
X0226368Y0047815D01*
X0226286Y0047951D01*
X0226208Y0048088D01*
X0226134Y0048228D01*
X0226063Y0048370D01*
X0225995Y0048513D01*
X0225931Y0048658D01*
X0225871Y0048804D01*
X0225815Y0048952D01*
X0225762Y0049101D01*
X0225713Y0049252D01*
X0225668Y0049404D01*
X0225627Y0049557D01*
X0225589Y0049710D01*
X0225556Y0049865D01*
X0225526Y0050021D01*
X0225500Y0050177D01*
X0225479Y0050334D01*
X0225461Y0050491D01*
X0225447Y0050649D01*
X0225437Y0050807D01*
X0225431Y0050965D01*
X0225429Y0051123D01*
X0225429Y0131123D02*
X0225431Y0131281D01*
X0225437Y0131439D01*
X0225447Y0131597D01*
X0225461Y0131755D01*
X0225479Y0131912D01*
X0225500Y0132069D01*
X0225526Y0132225D01*
X0225556Y0132381D01*
X0225589Y0132536D01*
X0225627Y0132689D01*
X0225668Y0132842D01*
X0225713Y0132994D01*
X0225762Y0133145D01*
X0225815Y0133294D01*
X0225871Y0133442D01*
X0225931Y0133588D01*
X0225995Y0133733D01*
X0226063Y0133876D01*
X0226134Y0134018D01*
X0226208Y0134158D01*
X0226286Y0134295D01*
X0226368Y0134431D01*
X0226452Y0134565D01*
X0226541Y0134696D01*
X0226632Y0134825D01*
X0226727Y0134952D01*
X0226824Y0135077D01*
X0226925Y0135199D01*
X0227029Y0135318D01*
X0227136Y0135435D01*
X0227246Y0135549D01*
X0227359Y0135660D01*
X0227474Y0135769D01*
X0227592Y0135874D01*
X0227713Y0135976D01*
X0227836Y0136076D01*
X0227962Y0136172D01*
X0228090Y0136265D01*
X0228220Y0136355D01*
X0228353Y0136441D01*
X0228488Y0136525D01*
X0228624Y0136604D01*
X0228763Y0136681D01*
X0228904Y0136753D01*
X0229046Y0136823D01*
X0229190Y0136888D01*
X0229336Y0136950D01*
X0229483Y0137008D01*
X0229632Y0137063D01*
X0229782Y0137114D01*
X0229933Y0137161D01*
X0230085Y0137204D01*
X0230238Y0137243D01*
X0230393Y0137279D01*
X0230548Y0137310D01*
X0230704Y0137338D01*
X0230860Y0137362D01*
X0231017Y0137382D01*
X0231175Y0137398D01*
X0231332Y0137410D01*
X0231491Y0137418D01*
X0231649Y0137422D01*
X0231807Y0137422D01*
X0231965Y0137418D01*
X0232124Y0137410D01*
X0232281Y0137398D01*
X0232439Y0137382D01*
X0232596Y0137362D01*
X0232752Y0137338D01*
X0232908Y0137310D01*
X0233063Y0137279D01*
X0233218Y0137243D01*
X0233371Y0137204D01*
X0233523Y0137161D01*
X0233674Y0137114D01*
X0233824Y0137063D01*
X0233973Y0137008D01*
X0234120Y0136950D01*
X0234266Y0136888D01*
X0234410Y0136823D01*
X0234552Y0136753D01*
X0234693Y0136681D01*
X0234832Y0136604D01*
X0234968Y0136525D01*
X0235103Y0136441D01*
X0235236Y0136355D01*
X0235366Y0136265D01*
X0235494Y0136172D01*
X0235620Y0136076D01*
X0235743Y0135976D01*
X0235864Y0135874D01*
X0235982Y0135769D01*
X0236097Y0135660D01*
X0236210Y0135549D01*
X0236320Y0135435D01*
X0236427Y0135318D01*
X0236531Y0135199D01*
X0236632Y0135077D01*
X0236729Y0134952D01*
X0236824Y0134825D01*
X0236915Y0134696D01*
X0237004Y0134565D01*
X0237088Y0134431D01*
X0237170Y0134295D01*
X0237248Y0134158D01*
X0237322Y0134018D01*
X0237393Y0133876D01*
X0237461Y0133733D01*
X0237525Y0133588D01*
X0237585Y0133442D01*
X0237641Y0133294D01*
X0237694Y0133145D01*
X0237743Y0132994D01*
X0237788Y0132842D01*
X0237829Y0132689D01*
X0237867Y0132536D01*
X0237900Y0132381D01*
X0237930Y0132225D01*
X0237956Y0132069D01*
X0237977Y0131912D01*
X0237995Y0131755D01*
X0238009Y0131597D01*
X0238019Y0131439D01*
X0238025Y0131281D01*
X0238027Y0131123D01*
X0238025Y0130965D01*
X0238019Y0130807D01*
X0238009Y0130649D01*
X0237995Y0130491D01*
X0237977Y0130334D01*
X0237956Y0130177D01*
X0237930Y0130021D01*
X0237900Y0129865D01*
X0237867Y0129710D01*
X0237829Y0129557D01*
X0237788Y0129404D01*
X0237743Y0129252D01*
X0237694Y0129101D01*
X0237641Y0128952D01*
X0237585Y0128804D01*
X0237525Y0128658D01*
X0237461Y0128513D01*
X0237393Y0128370D01*
X0237322Y0128228D01*
X0237248Y0128088D01*
X0237170Y0127951D01*
X0237088Y0127815D01*
X0237004Y0127681D01*
X0236915Y0127550D01*
X0236824Y0127421D01*
X0236729Y0127294D01*
X0236632Y0127169D01*
X0236531Y0127047D01*
X0236427Y0126928D01*
X0236320Y0126811D01*
X0236210Y0126697D01*
X0236097Y0126586D01*
X0235982Y0126477D01*
X0235864Y0126372D01*
X0235743Y0126270D01*
X0235620Y0126170D01*
X0235494Y0126074D01*
X0235366Y0125981D01*
X0235236Y0125891D01*
X0235103Y0125805D01*
X0234968Y0125721D01*
X0234832Y0125642D01*
X0234693Y0125565D01*
X0234552Y0125493D01*
X0234410Y0125423D01*
X0234266Y0125358D01*
X0234120Y0125296D01*
X0233973Y0125238D01*
X0233824Y0125183D01*
X0233674Y0125132D01*
X0233523Y0125085D01*
X0233371Y0125042D01*
X0233218Y0125003D01*
X0233063Y0124967D01*
X0232908Y0124936D01*
X0232752Y0124908D01*
X0232596Y0124884D01*
X0232439Y0124864D01*
X0232281Y0124848D01*
X0232124Y0124836D01*
X0231965Y0124828D01*
X0231807Y0124824D01*
X0231649Y0124824D01*
X0231491Y0124828D01*
X0231332Y0124836D01*
X0231175Y0124848D01*
X0231017Y0124864D01*
X0230860Y0124884D01*
X0230704Y0124908D01*
X0230548Y0124936D01*
X0230393Y0124967D01*
X0230238Y0125003D01*
X0230085Y0125042D01*
X0229933Y0125085D01*
X0229782Y0125132D01*
X0229632Y0125183D01*
X0229483Y0125238D01*
X0229336Y0125296D01*
X0229190Y0125358D01*
X0229046Y0125423D01*
X0228904Y0125493D01*
X0228763Y0125565D01*
X0228624Y0125642D01*
X0228488Y0125721D01*
X0228353Y0125805D01*
X0228220Y0125891D01*
X0228090Y0125981D01*
X0227962Y0126074D01*
X0227836Y0126170D01*
X0227713Y0126270D01*
X0227592Y0126372D01*
X0227474Y0126477D01*
X0227359Y0126586D01*
X0227246Y0126697D01*
X0227136Y0126811D01*
X0227029Y0126928D01*
X0226925Y0127047D01*
X0226824Y0127169D01*
X0226727Y0127294D01*
X0226632Y0127421D01*
X0226541Y0127550D01*
X0226452Y0127681D01*
X0226368Y0127815D01*
X0226286Y0127951D01*
X0226208Y0128088D01*
X0226134Y0128228D01*
X0226063Y0128370D01*
X0225995Y0128513D01*
X0225931Y0128658D01*
X0225871Y0128804D01*
X0225815Y0128952D01*
X0225762Y0129101D01*
X0225713Y0129252D01*
X0225668Y0129404D01*
X0225627Y0129557D01*
X0225589Y0129710D01*
X0225556Y0129865D01*
X0225526Y0130021D01*
X0225500Y0130177D01*
X0225479Y0130334D01*
X0225461Y0130491D01*
X0225447Y0130649D01*
X0225437Y0130807D01*
X0225431Y0130965D01*
X0225429Y0131123D01*
X0395429Y0131123D02*
X0395431Y0131281D01*
X0395437Y0131439D01*
X0395447Y0131597D01*
X0395461Y0131755D01*
X0395479Y0131912D01*
X0395500Y0132069D01*
X0395526Y0132225D01*
X0395556Y0132381D01*
X0395589Y0132536D01*
X0395627Y0132689D01*
X0395668Y0132842D01*
X0395713Y0132994D01*
X0395762Y0133145D01*
X0395815Y0133294D01*
X0395871Y0133442D01*
X0395931Y0133588D01*
X0395995Y0133733D01*
X0396063Y0133876D01*
X0396134Y0134018D01*
X0396208Y0134158D01*
X0396286Y0134295D01*
X0396368Y0134431D01*
X0396452Y0134565D01*
X0396541Y0134696D01*
X0396632Y0134825D01*
X0396727Y0134952D01*
X0396824Y0135077D01*
X0396925Y0135199D01*
X0397029Y0135318D01*
X0397136Y0135435D01*
X0397246Y0135549D01*
X0397359Y0135660D01*
X0397474Y0135769D01*
X0397592Y0135874D01*
X0397713Y0135976D01*
X0397836Y0136076D01*
X0397962Y0136172D01*
X0398090Y0136265D01*
X0398220Y0136355D01*
X0398353Y0136441D01*
X0398488Y0136525D01*
X0398624Y0136604D01*
X0398763Y0136681D01*
X0398904Y0136753D01*
X0399046Y0136823D01*
X0399190Y0136888D01*
X0399336Y0136950D01*
X0399483Y0137008D01*
X0399632Y0137063D01*
X0399782Y0137114D01*
X0399933Y0137161D01*
X0400085Y0137204D01*
X0400238Y0137243D01*
X0400393Y0137279D01*
X0400548Y0137310D01*
X0400704Y0137338D01*
X0400860Y0137362D01*
X0401017Y0137382D01*
X0401175Y0137398D01*
X0401332Y0137410D01*
X0401491Y0137418D01*
X0401649Y0137422D01*
X0401807Y0137422D01*
X0401965Y0137418D01*
X0402124Y0137410D01*
X0402281Y0137398D01*
X0402439Y0137382D01*
X0402596Y0137362D01*
X0402752Y0137338D01*
X0402908Y0137310D01*
X0403063Y0137279D01*
X0403218Y0137243D01*
X0403371Y0137204D01*
X0403523Y0137161D01*
X0403674Y0137114D01*
X0403824Y0137063D01*
X0403973Y0137008D01*
X0404120Y0136950D01*
X0404266Y0136888D01*
X0404410Y0136823D01*
X0404552Y0136753D01*
X0404693Y0136681D01*
X0404832Y0136604D01*
X0404968Y0136525D01*
X0405103Y0136441D01*
X0405236Y0136355D01*
X0405366Y0136265D01*
X0405494Y0136172D01*
X0405620Y0136076D01*
X0405743Y0135976D01*
X0405864Y0135874D01*
X0405982Y0135769D01*
X0406097Y0135660D01*
X0406210Y0135549D01*
X0406320Y0135435D01*
X0406427Y0135318D01*
X0406531Y0135199D01*
X0406632Y0135077D01*
X0406729Y0134952D01*
X0406824Y0134825D01*
X0406915Y0134696D01*
X0407004Y0134565D01*
X0407088Y0134431D01*
X0407170Y0134295D01*
X0407248Y0134158D01*
X0407322Y0134018D01*
X0407393Y0133876D01*
X0407461Y0133733D01*
X0407525Y0133588D01*
X0407585Y0133442D01*
X0407641Y0133294D01*
X0407694Y0133145D01*
X0407743Y0132994D01*
X0407788Y0132842D01*
X0407829Y0132689D01*
X0407867Y0132536D01*
X0407900Y0132381D01*
X0407930Y0132225D01*
X0407956Y0132069D01*
X0407977Y0131912D01*
X0407995Y0131755D01*
X0408009Y0131597D01*
X0408019Y0131439D01*
X0408025Y0131281D01*
X0408027Y0131123D01*
X0408025Y0130965D01*
X0408019Y0130807D01*
X0408009Y0130649D01*
X0407995Y0130491D01*
X0407977Y0130334D01*
X0407956Y0130177D01*
X0407930Y0130021D01*
X0407900Y0129865D01*
X0407867Y0129710D01*
X0407829Y0129557D01*
X0407788Y0129404D01*
X0407743Y0129252D01*
X0407694Y0129101D01*
X0407641Y0128952D01*
X0407585Y0128804D01*
X0407525Y0128658D01*
X0407461Y0128513D01*
X0407393Y0128370D01*
X0407322Y0128228D01*
X0407248Y0128088D01*
X0407170Y0127951D01*
X0407088Y0127815D01*
X0407004Y0127681D01*
X0406915Y0127550D01*
X0406824Y0127421D01*
X0406729Y0127294D01*
X0406632Y0127169D01*
X0406531Y0127047D01*
X0406427Y0126928D01*
X0406320Y0126811D01*
X0406210Y0126697D01*
X0406097Y0126586D01*
X0405982Y0126477D01*
X0405864Y0126372D01*
X0405743Y0126270D01*
X0405620Y0126170D01*
X0405494Y0126074D01*
X0405366Y0125981D01*
X0405236Y0125891D01*
X0405103Y0125805D01*
X0404968Y0125721D01*
X0404832Y0125642D01*
X0404693Y0125565D01*
X0404552Y0125493D01*
X0404410Y0125423D01*
X0404266Y0125358D01*
X0404120Y0125296D01*
X0403973Y0125238D01*
X0403824Y0125183D01*
X0403674Y0125132D01*
X0403523Y0125085D01*
X0403371Y0125042D01*
X0403218Y0125003D01*
X0403063Y0124967D01*
X0402908Y0124936D01*
X0402752Y0124908D01*
X0402596Y0124884D01*
X0402439Y0124864D01*
X0402281Y0124848D01*
X0402124Y0124836D01*
X0401965Y0124828D01*
X0401807Y0124824D01*
X0401649Y0124824D01*
X0401491Y0124828D01*
X0401332Y0124836D01*
X0401175Y0124848D01*
X0401017Y0124864D01*
X0400860Y0124884D01*
X0400704Y0124908D01*
X0400548Y0124936D01*
X0400393Y0124967D01*
X0400238Y0125003D01*
X0400085Y0125042D01*
X0399933Y0125085D01*
X0399782Y0125132D01*
X0399632Y0125183D01*
X0399483Y0125238D01*
X0399336Y0125296D01*
X0399190Y0125358D01*
X0399046Y0125423D01*
X0398904Y0125493D01*
X0398763Y0125565D01*
X0398624Y0125642D01*
X0398488Y0125721D01*
X0398353Y0125805D01*
X0398220Y0125891D01*
X0398090Y0125981D01*
X0397962Y0126074D01*
X0397836Y0126170D01*
X0397713Y0126270D01*
X0397592Y0126372D01*
X0397474Y0126477D01*
X0397359Y0126586D01*
X0397246Y0126697D01*
X0397136Y0126811D01*
X0397029Y0126928D01*
X0396925Y0127047D01*
X0396824Y0127169D01*
X0396727Y0127294D01*
X0396632Y0127421D01*
X0396541Y0127550D01*
X0396452Y0127681D01*
X0396368Y0127815D01*
X0396286Y0127951D01*
X0396208Y0128088D01*
X0396134Y0128228D01*
X0396063Y0128370D01*
X0395995Y0128513D01*
X0395931Y0128658D01*
X0395871Y0128804D01*
X0395815Y0128952D01*
X0395762Y0129101D01*
X0395713Y0129252D01*
X0395668Y0129404D01*
X0395627Y0129557D01*
X0395589Y0129710D01*
X0395556Y0129865D01*
X0395526Y0130021D01*
X0395500Y0130177D01*
X0395479Y0130334D01*
X0395461Y0130491D01*
X0395447Y0130649D01*
X0395437Y0130807D01*
X0395431Y0130965D01*
X0395429Y0131123D01*
X0395429Y0051123D02*
X0395431Y0051281D01*
X0395437Y0051439D01*
X0395447Y0051597D01*
X0395461Y0051755D01*
X0395479Y0051912D01*
X0395500Y0052069D01*
X0395526Y0052225D01*
X0395556Y0052381D01*
X0395589Y0052536D01*
X0395627Y0052689D01*
X0395668Y0052842D01*
X0395713Y0052994D01*
X0395762Y0053145D01*
X0395815Y0053294D01*
X0395871Y0053442D01*
X0395931Y0053588D01*
X0395995Y0053733D01*
X0396063Y0053876D01*
X0396134Y0054018D01*
X0396208Y0054158D01*
X0396286Y0054295D01*
X0396368Y0054431D01*
X0396452Y0054565D01*
X0396541Y0054696D01*
X0396632Y0054825D01*
X0396727Y0054952D01*
X0396824Y0055077D01*
X0396925Y0055199D01*
X0397029Y0055318D01*
X0397136Y0055435D01*
X0397246Y0055549D01*
X0397359Y0055660D01*
X0397474Y0055769D01*
X0397592Y0055874D01*
X0397713Y0055976D01*
X0397836Y0056076D01*
X0397962Y0056172D01*
X0398090Y0056265D01*
X0398220Y0056355D01*
X0398353Y0056441D01*
X0398488Y0056525D01*
X0398624Y0056604D01*
X0398763Y0056681D01*
X0398904Y0056753D01*
X0399046Y0056823D01*
X0399190Y0056888D01*
X0399336Y0056950D01*
X0399483Y0057008D01*
X0399632Y0057063D01*
X0399782Y0057114D01*
X0399933Y0057161D01*
X0400085Y0057204D01*
X0400238Y0057243D01*
X0400393Y0057279D01*
X0400548Y0057310D01*
X0400704Y0057338D01*
X0400860Y0057362D01*
X0401017Y0057382D01*
X0401175Y0057398D01*
X0401332Y0057410D01*
X0401491Y0057418D01*
X0401649Y0057422D01*
X0401807Y0057422D01*
X0401965Y0057418D01*
X0402124Y0057410D01*
X0402281Y0057398D01*
X0402439Y0057382D01*
X0402596Y0057362D01*
X0402752Y0057338D01*
X0402908Y0057310D01*
X0403063Y0057279D01*
X0403218Y0057243D01*
X0403371Y0057204D01*
X0403523Y0057161D01*
X0403674Y0057114D01*
X0403824Y0057063D01*
X0403973Y0057008D01*
X0404120Y0056950D01*
X0404266Y0056888D01*
X0404410Y0056823D01*
X0404552Y0056753D01*
X0404693Y0056681D01*
X0404832Y0056604D01*
X0404968Y0056525D01*
X0405103Y0056441D01*
X0405236Y0056355D01*
X0405366Y0056265D01*
X0405494Y0056172D01*
X0405620Y0056076D01*
X0405743Y0055976D01*
X0405864Y0055874D01*
X0405982Y0055769D01*
X0406097Y0055660D01*
X0406210Y0055549D01*
X0406320Y0055435D01*
X0406427Y0055318D01*
X0406531Y0055199D01*
X0406632Y0055077D01*
X0406729Y0054952D01*
X0406824Y0054825D01*
X0406915Y0054696D01*
X0407004Y0054565D01*
X0407088Y0054431D01*
X0407170Y0054295D01*
X0407248Y0054158D01*
X0407322Y0054018D01*
X0407393Y0053876D01*
X0407461Y0053733D01*
X0407525Y0053588D01*
X0407585Y0053442D01*
X0407641Y0053294D01*
X0407694Y0053145D01*
X0407743Y0052994D01*
X0407788Y0052842D01*
X0407829Y0052689D01*
X0407867Y0052536D01*
X0407900Y0052381D01*
X0407930Y0052225D01*
X0407956Y0052069D01*
X0407977Y0051912D01*
X0407995Y0051755D01*
X0408009Y0051597D01*
X0408019Y0051439D01*
X0408025Y0051281D01*
X0408027Y0051123D01*
X0408025Y0050965D01*
X0408019Y0050807D01*
X0408009Y0050649D01*
X0407995Y0050491D01*
X0407977Y0050334D01*
X0407956Y0050177D01*
X0407930Y0050021D01*
X0407900Y0049865D01*
X0407867Y0049710D01*
X0407829Y0049557D01*
X0407788Y0049404D01*
X0407743Y0049252D01*
X0407694Y0049101D01*
X0407641Y0048952D01*
X0407585Y0048804D01*
X0407525Y0048658D01*
X0407461Y0048513D01*
X0407393Y0048370D01*
X0407322Y0048228D01*
X0407248Y0048088D01*
X0407170Y0047951D01*
X0407088Y0047815D01*
X0407004Y0047681D01*
X0406915Y0047550D01*
X0406824Y0047421D01*
X0406729Y0047294D01*
X0406632Y0047169D01*
X0406531Y0047047D01*
X0406427Y0046928D01*
X0406320Y0046811D01*
X0406210Y0046697D01*
X0406097Y0046586D01*
X0405982Y0046477D01*
X0405864Y0046372D01*
X0405743Y0046270D01*
X0405620Y0046170D01*
X0405494Y0046074D01*
X0405366Y0045981D01*
X0405236Y0045891D01*
X0405103Y0045805D01*
X0404968Y0045721D01*
X0404832Y0045642D01*
X0404693Y0045565D01*
X0404552Y0045493D01*
X0404410Y0045423D01*
X0404266Y0045358D01*
X0404120Y0045296D01*
X0403973Y0045238D01*
X0403824Y0045183D01*
X0403674Y0045132D01*
X0403523Y0045085D01*
X0403371Y0045042D01*
X0403218Y0045003D01*
X0403063Y0044967D01*
X0402908Y0044936D01*
X0402752Y0044908D01*
X0402596Y0044884D01*
X0402439Y0044864D01*
X0402281Y0044848D01*
X0402124Y0044836D01*
X0401965Y0044828D01*
X0401807Y0044824D01*
X0401649Y0044824D01*
X0401491Y0044828D01*
X0401332Y0044836D01*
X0401175Y0044848D01*
X0401017Y0044864D01*
X0400860Y0044884D01*
X0400704Y0044908D01*
X0400548Y0044936D01*
X0400393Y0044967D01*
X0400238Y0045003D01*
X0400085Y0045042D01*
X0399933Y0045085D01*
X0399782Y0045132D01*
X0399632Y0045183D01*
X0399483Y0045238D01*
X0399336Y0045296D01*
X0399190Y0045358D01*
X0399046Y0045423D01*
X0398904Y0045493D01*
X0398763Y0045565D01*
X0398624Y0045642D01*
X0398488Y0045721D01*
X0398353Y0045805D01*
X0398220Y0045891D01*
X0398090Y0045981D01*
X0397962Y0046074D01*
X0397836Y0046170D01*
X0397713Y0046270D01*
X0397592Y0046372D01*
X0397474Y0046477D01*
X0397359Y0046586D01*
X0397246Y0046697D01*
X0397136Y0046811D01*
X0397029Y0046928D01*
X0396925Y0047047D01*
X0396824Y0047169D01*
X0396727Y0047294D01*
X0396632Y0047421D01*
X0396541Y0047550D01*
X0396452Y0047681D01*
X0396368Y0047815D01*
X0396286Y0047951D01*
X0396208Y0048088D01*
X0396134Y0048228D01*
X0396063Y0048370D01*
X0395995Y0048513D01*
X0395931Y0048658D01*
X0395871Y0048804D01*
X0395815Y0048952D01*
X0395762Y0049101D01*
X0395713Y0049252D01*
X0395668Y0049404D01*
X0395627Y0049557D01*
X0395589Y0049710D01*
X0395556Y0049865D01*
X0395526Y0050021D01*
X0395500Y0050177D01*
X0395479Y0050334D01*
X0395461Y0050491D01*
X0395447Y0050649D01*
X0395437Y0050807D01*
X0395431Y0050965D01*
X0395429Y0051123D01*
X0395828Y0051123D02*
X0395830Y0051276D01*
X0395836Y0051429D01*
X0395846Y0051582D01*
X0395860Y0051735D01*
X0395878Y0051887D01*
X0395899Y0052038D01*
X0395925Y0052189D01*
X0395955Y0052340D01*
X0395988Y0052489D01*
X0396026Y0052638D01*
X0396067Y0052785D01*
X0396112Y0052932D01*
X0396161Y0053077D01*
X0396213Y0053221D01*
X0396270Y0053363D01*
X0396330Y0053504D01*
X0396393Y0053643D01*
X0396461Y0053781D01*
X0396531Y0053917D01*
X0396606Y0054051D01*
X0396683Y0054183D01*
X0396765Y0054313D01*
X0396849Y0054441D01*
X0396937Y0054566D01*
X0397028Y0054689D01*
X0397122Y0054810D01*
X0397219Y0054928D01*
X0397320Y0055044D01*
X0397423Y0055157D01*
X0397529Y0055268D01*
X0397638Y0055375D01*
X0397750Y0055480D01*
X0397864Y0055582D01*
X0397981Y0055681D01*
X0398101Y0055776D01*
X0398223Y0055869D01*
X0398347Y0055958D01*
X0398474Y0056045D01*
X0398603Y0056127D01*
X0398734Y0056207D01*
X0398867Y0056283D01*
X0399002Y0056355D01*
X0399139Y0056424D01*
X0399277Y0056490D01*
X0399417Y0056552D01*
X0399559Y0056610D01*
X0399702Y0056664D01*
X0399847Y0056715D01*
X0399992Y0056762D01*
X0400139Y0056805D01*
X0400287Y0056844D01*
X0400436Y0056880D01*
X0400586Y0056911D01*
X0400737Y0056939D01*
X0400888Y0056963D01*
X0401040Y0056983D01*
X0401193Y0056999D01*
X0401345Y0057011D01*
X0401498Y0057019D01*
X0401651Y0057023D01*
X0401805Y0057023D01*
X0401958Y0057019D01*
X0402111Y0057011D01*
X0402263Y0056999D01*
X0402416Y0056983D01*
X0402568Y0056963D01*
X0402719Y0056939D01*
X0402870Y0056911D01*
X0403020Y0056880D01*
X0403169Y0056844D01*
X0403317Y0056805D01*
X0403464Y0056762D01*
X0403609Y0056715D01*
X0403754Y0056664D01*
X0403897Y0056610D01*
X0404039Y0056552D01*
X0404179Y0056490D01*
X0404317Y0056424D01*
X0404454Y0056355D01*
X0404589Y0056283D01*
X0404722Y0056207D01*
X0404853Y0056127D01*
X0404982Y0056045D01*
X0405109Y0055958D01*
X0405233Y0055869D01*
X0405355Y0055776D01*
X0405475Y0055681D01*
X0405592Y0055582D01*
X0405706Y0055480D01*
X0405818Y0055375D01*
X0405927Y0055268D01*
X0406033Y0055157D01*
X0406136Y0055044D01*
X0406237Y0054928D01*
X0406334Y0054810D01*
X0406428Y0054689D01*
X0406519Y0054566D01*
X0406607Y0054441D01*
X0406691Y0054313D01*
X0406773Y0054183D01*
X0406850Y0054051D01*
X0406925Y0053917D01*
X0406995Y0053781D01*
X0407063Y0053643D01*
X0407126Y0053504D01*
X0407186Y0053363D01*
X0407243Y0053221D01*
X0407295Y0053077D01*
X0407344Y0052932D01*
X0407389Y0052785D01*
X0407430Y0052638D01*
X0407468Y0052489D01*
X0407501Y0052340D01*
X0407531Y0052189D01*
X0407557Y0052038D01*
X0407578Y0051887D01*
X0407596Y0051735D01*
X0407610Y0051582D01*
X0407620Y0051429D01*
X0407626Y0051276D01*
X0407628Y0051123D01*
X0407626Y0050970D01*
X0407620Y0050817D01*
X0407610Y0050664D01*
X0407596Y0050511D01*
X0407578Y0050359D01*
X0407557Y0050208D01*
X0407531Y0050057D01*
X0407501Y0049906D01*
X0407468Y0049757D01*
X0407430Y0049608D01*
X0407389Y0049461D01*
X0407344Y0049314D01*
X0407295Y0049169D01*
X0407243Y0049025D01*
X0407186Y0048883D01*
X0407126Y0048742D01*
X0407063Y0048603D01*
X0406995Y0048465D01*
X0406925Y0048329D01*
X0406850Y0048195D01*
X0406773Y0048063D01*
X0406691Y0047933D01*
X0406607Y0047805D01*
X0406519Y0047680D01*
X0406428Y0047557D01*
X0406334Y0047436D01*
X0406237Y0047318D01*
X0406136Y0047202D01*
X0406033Y0047089D01*
X0405927Y0046978D01*
X0405818Y0046871D01*
X0405706Y0046766D01*
X0405592Y0046664D01*
X0405475Y0046565D01*
X0405355Y0046470D01*
X0405233Y0046377D01*
X0405109Y0046288D01*
X0404982Y0046201D01*
X0404853Y0046119D01*
X0404722Y0046039D01*
X0404589Y0045963D01*
X0404454Y0045891D01*
X0404317Y0045822D01*
X0404179Y0045756D01*
X0404039Y0045694D01*
X0403897Y0045636D01*
X0403754Y0045582D01*
X0403609Y0045531D01*
X0403464Y0045484D01*
X0403317Y0045441D01*
X0403169Y0045402D01*
X0403020Y0045366D01*
X0402870Y0045335D01*
X0402719Y0045307D01*
X0402568Y0045283D01*
X0402416Y0045263D01*
X0402263Y0045247D01*
X0402111Y0045235D01*
X0401958Y0045227D01*
X0401805Y0045223D01*
X0401651Y0045223D01*
X0401498Y0045227D01*
X0401345Y0045235D01*
X0401193Y0045247D01*
X0401040Y0045263D01*
X0400888Y0045283D01*
X0400737Y0045307D01*
X0400586Y0045335D01*
X0400436Y0045366D01*
X0400287Y0045402D01*
X0400139Y0045441D01*
X0399992Y0045484D01*
X0399847Y0045531D01*
X0399702Y0045582D01*
X0399559Y0045636D01*
X0399417Y0045694D01*
X0399277Y0045756D01*
X0399139Y0045822D01*
X0399002Y0045891D01*
X0398867Y0045963D01*
X0398734Y0046039D01*
X0398603Y0046119D01*
X0398474Y0046201D01*
X0398347Y0046288D01*
X0398223Y0046377D01*
X0398101Y0046470D01*
X0397981Y0046565D01*
X0397864Y0046664D01*
X0397750Y0046766D01*
X0397638Y0046871D01*
X0397529Y0046978D01*
X0397423Y0047089D01*
X0397320Y0047202D01*
X0397219Y0047318D01*
X0397122Y0047436D01*
X0397028Y0047557D01*
X0396937Y0047680D01*
X0396849Y0047805D01*
X0396765Y0047933D01*
X0396683Y0048063D01*
X0396606Y0048195D01*
X0396531Y0048329D01*
X0396461Y0048465D01*
X0396393Y0048603D01*
X0396330Y0048742D01*
X0396270Y0048883D01*
X0396213Y0049025D01*
X0396161Y0049169D01*
X0396112Y0049314D01*
X0396067Y0049461D01*
X0396026Y0049608D01*
X0395988Y0049757D01*
X0395955Y0049906D01*
X0395925Y0050057D01*
X0395899Y0050208D01*
X0395878Y0050359D01*
X0395860Y0050511D01*
X0395846Y0050664D01*
X0395836Y0050817D01*
X0395830Y0050970D01*
X0395828Y0051123D01*
X0395828Y0264469D02*
X0395830Y0264622D01*
X0395836Y0264775D01*
X0395846Y0264928D01*
X0395860Y0265081D01*
X0395878Y0265233D01*
X0395899Y0265384D01*
X0395925Y0265535D01*
X0395955Y0265686D01*
X0395988Y0265835D01*
X0396026Y0265984D01*
X0396067Y0266131D01*
X0396112Y0266278D01*
X0396161Y0266423D01*
X0396213Y0266567D01*
X0396270Y0266709D01*
X0396330Y0266850D01*
X0396393Y0266989D01*
X0396461Y0267127D01*
X0396531Y0267263D01*
X0396606Y0267397D01*
X0396683Y0267529D01*
X0396765Y0267659D01*
X0396849Y0267787D01*
X0396937Y0267912D01*
X0397028Y0268035D01*
X0397122Y0268156D01*
X0397219Y0268274D01*
X0397320Y0268390D01*
X0397423Y0268503D01*
X0397529Y0268614D01*
X0397638Y0268721D01*
X0397750Y0268826D01*
X0397864Y0268928D01*
X0397981Y0269027D01*
X0398101Y0269122D01*
X0398223Y0269215D01*
X0398347Y0269304D01*
X0398474Y0269391D01*
X0398603Y0269473D01*
X0398734Y0269553D01*
X0398867Y0269629D01*
X0399002Y0269701D01*
X0399139Y0269770D01*
X0399277Y0269836D01*
X0399417Y0269898D01*
X0399559Y0269956D01*
X0399702Y0270010D01*
X0399847Y0270061D01*
X0399992Y0270108D01*
X0400139Y0270151D01*
X0400287Y0270190D01*
X0400436Y0270226D01*
X0400586Y0270257D01*
X0400737Y0270285D01*
X0400888Y0270309D01*
X0401040Y0270329D01*
X0401193Y0270345D01*
X0401345Y0270357D01*
X0401498Y0270365D01*
X0401651Y0270369D01*
X0401805Y0270369D01*
X0401958Y0270365D01*
X0402111Y0270357D01*
X0402263Y0270345D01*
X0402416Y0270329D01*
X0402568Y0270309D01*
X0402719Y0270285D01*
X0402870Y0270257D01*
X0403020Y0270226D01*
X0403169Y0270190D01*
X0403317Y0270151D01*
X0403464Y0270108D01*
X0403609Y0270061D01*
X0403754Y0270010D01*
X0403897Y0269956D01*
X0404039Y0269898D01*
X0404179Y0269836D01*
X0404317Y0269770D01*
X0404454Y0269701D01*
X0404589Y0269629D01*
X0404722Y0269553D01*
X0404853Y0269473D01*
X0404982Y0269391D01*
X0405109Y0269304D01*
X0405233Y0269215D01*
X0405355Y0269122D01*
X0405475Y0269027D01*
X0405592Y0268928D01*
X0405706Y0268826D01*
X0405818Y0268721D01*
X0405927Y0268614D01*
X0406033Y0268503D01*
X0406136Y0268390D01*
X0406237Y0268274D01*
X0406334Y0268156D01*
X0406428Y0268035D01*
X0406519Y0267912D01*
X0406607Y0267787D01*
X0406691Y0267659D01*
X0406773Y0267529D01*
X0406850Y0267397D01*
X0406925Y0267263D01*
X0406995Y0267127D01*
X0407063Y0266989D01*
X0407126Y0266850D01*
X0407186Y0266709D01*
X0407243Y0266567D01*
X0407295Y0266423D01*
X0407344Y0266278D01*
X0407389Y0266131D01*
X0407430Y0265984D01*
X0407468Y0265835D01*
X0407501Y0265686D01*
X0407531Y0265535D01*
X0407557Y0265384D01*
X0407578Y0265233D01*
X0407596Y0265081D01*
X0407610Y0264928D01*
X0407620Y0264775D01*
X0407626Y0264622D01*
X0407628Y0264469D01*
X0407626Y0264316D01*
X0407620Y0264163D01*
X0407610Y0264010D01*
X0407596Y0263857D01*
X0407578Y0263705D01*
X0407557Y0263554D01*
X0407531Y0263403D01*
X0407501Y0263252D01*
X0407468Y0263103D01*
X0407430Y0262954D01*
X0407389Y0262807D01*
X0407344Y0262660D01*
X0407295Y0262515D01*
X0407243Y0262371D01*
X0407186Y0262229D01*
X0407126Y0262088D01*
X0407063Y0261949D01*
X0406995Y0261811D01*
X0406925Y0261675D01*
X0406850Y0261541D01*
X0406773Y0261409D01*
X0406691Y0261279D01*
X0406607Y0261151D01*
X0406519Y0261026D01*
X0406428Y0260903D01*
X0406334Y0260782D01*
X0406237Y0260664D01*
X0406136Y0260548D01*
X0406033Y0260435D01*
X0405927Y0260324D01*
X0405818Y0260217D01*
X0405706Y0260112D01*
X0405592Y0260010D01*
X0405475Y0259911D01*
X0405355Y0259816D01*
X0405233Y0259723D01*
X0405109Y0259634D01*
X0404982Y0259547D01*
X0404853Y0259465D01*
X0404722Y0259385D01*
X0404589Y0259309D01*
X0404454Y0259237D01*
X0404317Y0259168D01*
X0404179Y0259102D01*
X0404039Y0259040D01*
X0403897Y0258982D01*
X0403754Y0258928D01*
X0403609Y0258877D01*
X0403464Y0258830D01*
X0403317Y0258787D01*
X0403169Y0258748D01*
X0403020Y0258712D01*
X0402870Y0258681D01*
X0402719Y0258653D01*
X0402568Y0258629D01*
X0402416Y0258609D01*
X0402263Y0258593D01*
X0402111Y0258581D01*
X0401958Y0258573D01*
X0401805Y0258569D01*
X0401651Y0258569D01*
X0401498Y0258573D01*
X0401345Y0258581D01*
X0401193Y0258593D01*
X0401040Y0258609D01*
X0400888Y0258629D01*
X0400737Y0258653D01*
X0400586Y0258681D01*
X0400436Y0258712D01*
X0400287Y0258748D01*
X0400139Y0258787D01*
X0399992Y0258830D01*
X0399847Y0258877D01*
X0399702Y0258928D01*
X0399559Y0258982D01*
X0399417Y0259040D01*
X0399277Y0259102D01*
X0399139Y0259168D01*
X0399002Y0259237D01*
X0398867Y0259309D01*
X0398734Y0259385D01*
X0398603Y0259465D01*
X0398474Y0259547D01*
X0398347Y0259634D01*
X0398223Y0259723D01*
X0398101Y0259816D01*
X0397981Y0259911D01*
X0397864Y0260010D01*
X0397750Y0260112D01*
X0397638Y0260217D01*
X0397529Y0260324D01*
X0397423Y0260435D01*
X0397320Y0260548D01*
X0397219Y0260664D01*
X0397122Y0260782D01*
X0397028Y0260903D01*
X0396937Y0261026D01*
X0396849Y0261151D01*
X0396765Y0261279D01*
X0396683Y0261409D01*
X0396606Y0261541D01*
X0396531Y0261675D01*
X0396461Y0261811D01*
X0396393Y0261949D01*
X0396330Y0262088D01*
X0396270Y0262229D01*
X0396213Y0262371D01*
X0396161Y0262515D01*
X0396112Y0262660D01*
X0396067Y0262807D01*
X0396026Y0262954D01*
X0395988Y0263103D01*
X0395955Y0263252D01*
X0395925Y0263403D01*
X0395899Y0263554D01*
X0395878Y0263705D01*
X0395860Y0263857D01*
X0395846Y0264010D01*
X0395836Y0264163D01*
X0395830Y0264316D01*
X0395828Y0264469D01*
X0025828Y0264469D02*
X0025830Y0264622D01*
X0025836Y0264775D01*
X0025846Y0264928D01*
X0025860Y0265081D01*
X0025878Y0265233D01*
X0025899Y0265384D01*
X0025925Y0265535D01*
X0025955Y0265686D01*
X0025988Y0265835D01*
X0026026Y0265984D01*
X0026067Y0266131D01*
X0026112Y0266278D01*
X0026161Y0266423D01*
X0026213Y0266567D01*
X0026270Y0266709D01*
X0026330Y0266850D01*
X0026393Y0266989D01*
X0026461Y0267127D01*
X0026531Y0267263D01*
X0026606Y0267397D01*
X0026683Y0267529D01*
X0026765Y0267659D01*
X0026849Y0267787D01*
X0026937Y0267912D01*
X0027028Y0268035D01*
X0027122Y0268156D01*
X0027219Y0268274D01*
X0027320Y0268390D01*
X0027423Y0268503D01*
X0027529Y0268614D01*
X0027638Y0268721D01*
X0027750Y0268826D01*
X0027864Y0268928D01*
X0027981Y0269027D01*
X0028101Y0269122D01*
X0028223Y0269215D01*
X0028347Y0269304D01*
X0028474Y0269391D01*
X0028603Y0269473D01*
X0028734Y0269553D01*
X0028867Y0269629D01*
X0029002Y0269701D01*
X0029139Y0269770D01*
X0029277Y0269836D01*
X0029417Y0269898D01*
X0029559Y0269956D01*
X0029702Y0270010D01*
X0029847Y0270061D01*
X0029992Y0270108D01*
X0030139Y0270151D01*
X0030287Y0270190D01*
X0030436Y0270226D01*
X0030586Y0270257D01*
X0030737Y0270285D01*
X0030888Y0270309D01*
X0031040Y0270329D01*
X0031193Y0270345D01*
X0031345Y0270357D01*
X0031498Y0270365D01*
X0031651Y0270369D01*
X0031805Y0270369D01*
X0031958Y0270365D01*
X0032111Y0270357D01*
X0032263Y0270345D01*
X0032416Y0270329D01*
X0032568Y0270309D01*
X0032719Y0270285D01*
X0032870Y0270257D01*
X0033020Y0270226D01*
X0033169Y0270190D01*
X0033317Y0270151D01*
X0033464Y0270108D01*
X0033609Y0270061D01*
X0033754Y0270010D01*
X0033897Y0269956D01*
X0034039Y0269898D01*
X0034179Y0269836D01*
X0034317Y0269770D01*
X0034454Y0269701D01*
X0034589Y0269629D01*
X0034722Y0269553D01*
X0034853Y0269473D01*
X0034982Y0269391D01*
X0035109Y0269304D01*
X0035233Y0269215D01*
X0035355Y0269122D01*
X0035475Y0269027D01*
X0035592Y0268928D01*
X0035706Y0268826D01*
X0035818Y0268721D01*
X0035927Y0268614D01*
X0036033Y0268503D01*
X0036136Y0268390D01*
X0036237Y0268274D01*
X0036334Y0268156D01*
X0036428Y0268035D01*
X0036519Y0267912D01*
X0036607Y0267787D01*
X0036691Y0267659D01*
X0036773Y0267529D01*
X0036850Y0267397D01*
X0036925Y0267263D01*
X0036995Y0267127D01*
X0037063Y0266989D01*
X0037126Y0266850D01*
X0037186Y0266709D01*
X0037243Y0266567D01*
X0037295Y0266423D01*
X0037344Y0266278D01*
X0037389Y0266131D01*
X0037430Y0265984D01*
X0037468Y0265835D01*
X0037501Y0265686D01*
X0037531Y0265535D01*
X0037557Y0265384D01*
X0037578Y0265233D01*
X0037596Y0265081D01*
X0037610Y0264928D01*
X0037620Y0264775D01*
X0037626Y0264622D01*
X0037628Y0264469D01*
X0037626Y0264316D01*
X0037620Y0264163D01*
X0037610Y0264010D01*
X0037596Y0263857D01*
X0037578Y0263705D01*
X0037557Y0263554D01*
X0037531Y0263403D01*
X0037501Y0263252D01*
X0037468Y0263103D01*
X0037430Y0262954D01*
X0037389Y0262807D01*
X0037344Y0262660D01*
X0037295Y0262515D01*
X0037243Y0262371D01*
X0037186Y0262229D01*
X0037126Y0262088D01*
X0037063Y0261949D01*
X0036995Y0261811D01*
X0036925Y0261675D01*
X0036850Y0261541D01*
X0036773Y0261409D01*
X0036691Y0261279D01*
X0036607Y0261151D01*
X0036519Y0261026D01*
X0036428Y0260903D01*
X0036334Y0260782D01*
X0036237Y0260664D01*
X0036136Y0260548D01*
X0036033Y0260435D01*
X0035927Y0260324D01*
X0035818Y0260217D01*
X0035706Y0260112D01*
X0035592Y0260010D01*
X0035475Y0259911D01*
X0035355Y0259816D01*
X0035233Y0259723D01*
X0035109Y0259634D01*
X0034982Y0259547D01*
X0034853Y0259465D01*
X0034722Y0259385D01*
X0034589Y0259309D01*
X0034454Y0259237D01*
X0034317Y0259168D01*
X0034179Y0259102D01*
X0034039Y0259040D01*
X0033897Y0258982D01*
X0033754Y0258928D01*
X0033609Y0258877D01*
X0033464Y0258830D01*
X0033317Y0258787D01*
X0033169Y0258748D01*
X0033020Y0258712D01*
X0032870Y0258681D01*
X0032719Y0258653D01*
X0032568Y0258629D01*
X0032416Y0258609D01*
X0032263Y0258593D01*
X0032111Y0258581D01*
X0031958Y0258573D01*
X0031805Y0258569D01*
X0031651Y0258569D01*
X0031498Y0258573D01*
X0031345Y0258581D01*
X0031193Y0258593D01*
X0031040Y0258609D01*
X0030888Y0258629D01*
X0030737Y0258653D01*
X0030586Y0258681D01*
X0030436Y0258712D01*
X0030287Y0258748D01*
X0030139Y0258787D01*
X0029992Y0258830D01*
X0029847Y0258877D01*
X0029702Y0258928D01*
X0029559Y0258982D01*
X0029417Y0259040D01*
X0029277Y0259102D01*
X0029139Y0259168D01*
X0029002Y0259237D01*
X0028867Y0259309D01*
X0028734Y0259385D01*
X0028603Y0259465D01*
X0028474Y0259547D01*
X0028347Y0259634D01*
X0028223Y0259723D01*
X0028101Y0259816D01*
X0027981Y0259911D01*
X0027864Y0260010D01*
X0027750Y0260112D01*
X0027638Y0260217D01*
X0027529Y0260324D01*
X0027423Y0260435D01*
X0027320Y0260548D01*
X0027219Y0260664D01*
X0027122Y0260782D01*
X0027028Y0260903D01*
X0026937Y0261026D01*
X0026849Y0261151D01*
X0026765Y0261279D01*
X0026683Y0261409D01*
X0026606Y0261541D01*
X0026531Y0261675D01*
X0026461Y0261811D01*
X0026393Y0261949D01*
X0026330Y0262088D01*
X0026270Y0262229D01*
X0026213Y0262371D01*
X0026161Y0262515D01*
X0026112Y0262660D01*
X0026067Y0262807D01*
X0026026Y0262954D01*
X0025988Y0263103D01*
X0025955Y0263252D01*
X0025925Y0263403D01*
X0025899Y0263554D01*
X0025878Y0263705D01*
X0025860Y0263857D01*
X0025846Y0264010D01*
X0025836Y0264163D01*
X0025830Y0264316D01*
X0025828Y0264469D01*
D12*
X0027328Y0036123D02*
X0028128Y0036123D01*
X0027328Y0036123D02*
X0021728Y0041723D01*
X0021728Y0043723D01*
X0409728Y0036123D02*
X0409828Y0036123D01*
X0415428Y0041723D01*
X0415428Y0266723D02*
X0409828Y0272323D01*
X0409728Y0272323D01*
M02*
