G75*
%MOIN*%
%OFA0B0*%
%FSLAX25Y25*%
%IPPOS*%
%LPD*%
%AMOC8*
5,1,8,0,0,1.08239X$1,22.5*
%
%ADD10C,0.00500*%
%ADD11C,0.00600*%
%ADD12C,0.00300*%
%ADD13C,0.00400*%
%ADD14C,0.00800*%
D10*
X0132062Y0103173D02*
X0135065Y0103173D01*
X0133563Y0103173D02*
X0133563Y0107677D01*
X0135065Y0106175D01*
X0136616Y0103923D02*
X0136616Y0103173D01*
X0137367Y0103173D01*
X0137367Y0103923D01*
X0136616Y0103923D01*
X0138968Y0103173D02*
X0141970Y0103173D01*
X0140469Y0103173D02*
X0140469Y0107677D01*
X0141970Y0106175D01*
X0143572Y0102422D02*
X0146574Y0102422D01*
X0148176Y0104674D02*
X0148176Y0107677D01*
X0151178Y0107677D02*
X0151178Y0104674D01*
X0149677Y0103173D01*
X0148176Y0104674D01*
X0148926Y0110673D02*
X0148176Y0111423D01*
X0148176Y0114426D01*
X0148926Y0115177D01*
X0151178Y0115177D01*
X0151178Y0110673D01*
X0148926Y0110673D01*
X0146574Y0111423D02*
X0145824Y0110673D01*
X0144323Y0110673D01*
X0143572Y0112174D02*
X0146574Y0112174D01*
X0146574Y0111423D02*
X0146574Y0112925D01*
X0145824Y0113675D01*
X0144323Y0113675D01*
X0143572Y0112925D01*
X0143572Y0112174D01*
X0141970Y0113675D02*
X0140469Y0110673D01*
X0138968Y0113675D01*
X0132763Y0115177D02*
X0131261Y0115177D01*
X0132012Y0115177D02*
X0132012Y0110673D01*
X0132763Y0110673D02*
X0131261Y0110673D01*
X0129693Y0111423D02*
X0128943Y0110673D01*
X0126691Y0110673D01*
X0125089Y0110673D02*
X0122087Y0110673D01*
X0123588Y0112925D02*
X0125089Y0112925D01*
X0126691Y0113675D02*
X0128943Y0113675D01*
X0129693Y0112925D01*
X0129693Y0111423D01*
X0125089Y0110673D02*
X0125089Y0115177D01*
X0122087Y0115177D01*
X0121270Y0118173D02*
X0122020Y0118923D01*
X0121270Y0119674D01*
X0119018Y0119674D01*
X0119018Y0120425D02*
X0119018Y0118173D01*
X0121270Y0118173D01*
X0123622Y0118173D02*
X0123622Y0122677D01*
X0125123Y0121175D01*
X0126624Y0122677D01*
X0126624Y0118173D01*
X0132829Y0118173D02*
X0132829Y0120425D01*
X0133580Y0121175D01*
X0135081Y0121175D01*
X0135081Y0119674D02*
X0132829Y0119674D01*
X0132829Y0118173D02*
X0135081Y0118173D01*
X0135832Y0118923D01*
X0135081Y0119674D01*
X0137433Y0118173D02*
X0139685Y0118173D01*
X0140436Y0118923D01*
X0140436Y0120425D01*
X0139685Y0121175D01*
X0137433Y0121175D01*
X0142755Y0121175D02*
X0142755Y0118173D01*
X0143505Y0118173D02*
X0142004Y0118173D01*
X0142755Y0121175D02*
X0143505Y0121175D01*
X0145107Y0121175D02*
X0146608Y0118173D01*
X0148109Y0121175D01*
X0149677Y0122677D02*
X0151178Y0122677D01*
X0150428Y0122677D02*
X0150428Y0118173D01*
X0151178Y0118173D02*
X0149677Y0118173D01*
X0142755Y0122677D02*
X0142755Y0123427D01*
X0121270Y0121175D02*
X0119768Y0121175D01*
X0119018Y0120425D01*
X0117416Y0121175D02*
X0115915Y0121175D01*
X0116666Y0121926D02*
X0116666Y0118923D01*
X0115915Y0118173D01*
X0114347Y0118173D02*
X0112846Y0118173D01*
X0113596Y0118173D02*
X0113596Y0121175D01*
X0114347Y0121175D01*
X0113596Y0122677D02*
X0113596Y0123427D01*
X0111278Y0120425D02*
X0111278Y0118923D01*
X0110527Y0118173D01*
X0108275Y0118173D01*
X0108208Y0115177D02*
X0105206Y0115177D01*
X0106707Y0115177D02*
X0106707Y0110673D01*
X0109810Y0111423D02*
X0109810Y0112925D01*
X0110560Y0113675D01*
X0112062Y0113675D01*
X0112812Y0112925D01*
X0112812Y0111423D01*
X0112062Y0110673D01*
X0110560Y0110673D01*
X0109810Y0111423D01*
X0114380Y0110673D02*
X0115882Y0110673D01*
X0115131Y0110673D02*
X0115131Y0115177D01*
X0115882Y0115177D02*
X0114380Y0115177D01*
X0111278Y0120425D02*
X0110527Y0121175D01*
X0108275Y0121175D01*
X0099001Y0115177D02*
X0096749Y0115177D01*
X0095998Y0114426D01*
X0095998Y0111423D01*
X0096749Y0110673D01*
X0099001Y0110673D01*
X0099001Y0115177D01*
X0094397Y0112925D02*
X0093646Y0113675D01*
X0092145Y0113675D01*
X0091394Y0112925D01*
X0091394Y0112174D01*
X0094397Y0112174D01*
X0094397Y0111423D02*
X0094397Y0112925D01*
X0094397Y0111423D02*
X0093646Y0110673D01*
X0092145Y0110673D01*
X0089793Y0113675D02*
X0088291Y0110673D01*
X0086790Y0113675D01*
X0085189Y0112925D02*
X0084438Y0113675D01*
X0082937Y0113675D01*
X0082186Y0112925D01*
X0082186Y0112174D01*
X0085189Y0112174D01*
X0085189Y0111423D02*
X0085189Y0112925D01*
X0085189Y0111423D02*
X0084438Y0110673D01*
X0082937Y0110673D01*
X0080585Y0110673D02*
X0079084Y0110673D01*
X0079834Y0110673D02*
X0079834Y0115177D01*
X0080585Y0115177D01*
X0077516Y0112925D02*
X0077516Y0111423D01*
X0076765Y0110673D01*
X0075264Y0110673D01*
X0074513Y0111423D01*
X0074513Y0112925D01*
X0075264Y0113675D01*
X0076765Y0113675D01*
X0077516Y0112925D01*
X0072912Y0113675D02*
X0072912Y0109171D01*
X0072912Y0110673D02*
X0070660Y0110673D01*
X0069909Y0111423D01*
X0069909Y0112925D01*
X0070660Y0113675D01*
X0072912Y0113675D01*
X0068308Y0113675D02*
X0068308Y0110673D01*
X0066806Y0110673D02*
X0066806Y0112925D01*
X0066056Y0113675D01*
X0065305Y0112925D01*
X0065305Y0110673D01*
X0063704Y0111423D02*
X0062953Y0110673D01*
X0061452Y0110673D01*
X0060701Y0112174D02*
X0063704Y0112174D01*
X0063704Y0111423D02*
X0063704Y0112925D01*
X0062953Y0113675D01*
X0061452Y0113675D01*
X0060701Y0112925D01*
X0060701Y0112174D01*
X0059100Y0110673D02*
X0059100Y0113675D01*
X0056848Y0113675D01*
X0056097Y0112925D01*
X0056097Y0110673D01*
X0053745Y0111423D02*
X0052995Y0110673D01*
X0053745Y0111423D02*
X0053745Y0114426D01*
X0052995Y0113675D02*
X0054496Y0113675D01*
X0046823Y0112925D02*
X0044571Y0112925D01*
X0043820Y0112174D01*
X0043820Y0111423D01*
X0044571Y0110673D01*
X0046823Y0110673D01*
X0046823Y0115177D01*
X0044571Y0115177D01*
X0043820Y0114426D01*
X0043820Y0113675D01*
X0044571Y0112925D01*
X0042219Y0112925D02*
X0042219Y0111423D01*
X0041468Y0110673D01*
X0039967Y0110673D01*
X0039216Y0111423D01*
X0039216Y0112925D01*
X0039967Y0113675D01*
X0041468Y0113675D01*
X0042219Y0112925D01*
X0037615Y0111423D02*
X0036864Y0112174D01*
X0034612Y0112174D01*
X0034612Y0112925D02*
X0034612Y0110673D01*
X0036864Y0110673D01*
X0037615Y0111423D01*
X0036864Y0113675D02*
X0035363Y0113675D01*
X0034612Y0112925D01*
X0033011Y0113675D02*
X0033011Y0110673D01*
X0033011Y0112174D02*
X0031510Y0113675D01*
X0030759Y0113675D01*
X0029174Y0112925D02*
X0028424Y0113675D01*
X0026172Y0113675D01*
X0026172Y0115177D02*
X0026172Y0110673D01*
X0028424Y0110673D01*
X0029174Y0111423D01*
X0029174Y0112925D01*
X0066806Y0112925D02*
X0067557Y0113675D01*
X0068308Y0113675D01*
X0211292Y0099375D02*
X0211292Y0098625D01*
X0212043Y0098625D01*
X0212043Y0099375D01*
X0211292Y0099375D01*
X0211292Y0097123D02*
X0211292Y0096373D01*
X0212043Y0096373D01*
X0212043Y0097123D01*
X0211292Y0097123D01*
X0213611Y0096373D02*
X0215112Y0096373D01*
X0214362Y0096373D02*
X0214362Y0100877D01*
X0215112Y0100877D01*
X0216714Y0098625D02*
X0216714Y0096373D01*
X0218966Y0096373D01*
X0219716Y0097123D01*
X0218966Y0097874D01*
X0216714Y0097874D01*
X0216714Y0098625D02*
X0217464Y0099375D01*
X0218966Y0099375D01*
X0222035Y0099375D02*
X0222035Y0096373D01*
X0222786Y0096373D02*
X0221284Y0096373D01*
X0222035Y0099375D02*
X0222786Y0099375D01*
X0224370Y0099375D02*
X0225121Y0099375D01*
X0226622Y0097874D01*
X0226622Y0096373D02*
X0226622Y0099375D01*
X0228223Y0098625D02*
X0228974Y0099375D01*
X0230475Y0099375D01*
X0231226Y0098625D01*
X0231226Y0097123D01*
X0230475Y0096373D01*
X0228974Y0096373D01*
X0228223Y0097874D02*
X0231226Y0097874D01*
X0232827Y0097874D02*
X0232827Y0097123D01*
X0233578Y0096373D01*
X0235079Y0096373D01*
X0235830Y0097123D01*
X0237381Y0097123D02*
X0237381Y0096373D01*
X0238132Y0096373D01*
X0238132Y0097123D01*
X0237381Y0097123D01*
X0239700Y0096373D02*
X0240451Y0097123D01*
X0240451Y0100126D01*
X0241201Y0099375D02*
X0239700Y0099375D01*
X0242769Y0098625D02*
X0244270Y0098625D01*
X0245872Y0098625D02*
X0246623Y0099375D01*
X0248124Y0099375D01*
X0248874Y0098625D01*
X0248874Y0097123D01*
X0248124Y0096373D01*
X0246623Y0096373D01*
X0245872Y0097123D01*
X0245872Y0098625D01*
X0243520Y0100126D02*
X0242769Y0100877D01*
X0243520Y0100126D02*
X0243520Y0096373D01*
X0245872Y0093377D02*
X0248874Y0088873D01*
X0248874Y0085877D02*
X0245872Y0081373D01*
X0244270Y0083625D02*
X0241268Y0083625D01*
X0239667Y0083625D02*
X0236664Y0083625D01*
X0235063Y0083625D02*
X0232060Y0083625D01*
X0230459Y0085877D02*
X0228207Y0085877D01*
X0227456Y0085126D01*
X0227456Y0082123D01*
X0228207Y0081373D01*
X0230459Y0081373D01*
X0230459Y0085877D01*
X0230459Y0088873D02*
X0228207Y0088873D01*
X0227456Y0089623D01*
X0227456Y0092626D01*
X0228207Y0093377D01*
X0230459Y0093377D01*
X0230459Y0088873D01*
X0232060Y0091125D02*
X0235063Y0091125D01*
X0236664Y0091125D02*
X0239667Y0091125D01*
X0241268Y0091125D02*
X0244270Y0091125D01*
X0245872Y0088873D02*
X0248874Y0093377D01*
X0250476Y0093377D02*
X0253478Y0093377D01*
X0251977Y0093377D02*
X0251977Y0088873D01*
X0251226Y0085877D02*
X0250476Y0085126D01*
X0250476Y0083625D01*
X0251226Y0082874D01*
X0253478Y0082874D01*
X0251977Y0082874D02*
X0250476Y0081373D01*
X0248874Y0081373D02*
X0245872Y0085877D01*
X0251226Y0085877D02*
X0253478Y0085877D01*
X0253478Y0081373D01*
X0266728Y0083623D02*
X0266728Y0088623D01*
X0269228Y0091123D01*
X0266728Y0093623D01*
X0266728Y0098623D02*
X0269228Y0101123D01*
X0266728Y0103623D01*
X0266728Y0108623D02*
X0269228Y0111123D01*
X0266728Y0113623D01*
X0266728Y0118623D02*
X0269228Y0121123D01*
X0274228Y0121123D01*
X0276728Y0118623D01*
X0276728Y0113623D01*
X0274228Y0111123D01*
X0276728Y0108623D01*
X0276728Y0103623D01*
X0274228Y0101123D01*
X0276728Y0098623D01*
X0276728Y0093623D01*
X0274228Y0091123D01*
X0276728Y0088623D01*
X0276728Y0083623D01*
X0274228Y0081123D01*
X0276728Y0078623D01*
X0276728Y0073623D01*
X0274228Y0071123D01*
X0276728Y0068623D01*
X0276728Y0063623D01*
X0274228Y0061123D01*
X0269228Y0061123D01*
X0266728Y0063623D01*
X0266728Y0068623D01*
X0269228Y0071123D01*
X0266728Y0073623D01*
X0266728Y0078623D01*
X0269228Y0081123D01*
X0266728Y0083623D01*
X0266728Y0078623D01*
X0266728Y0073623D02*
X0266728Y0068623D01*
X0266728Y0063623D02*
X0266728Y0058623D01*
X0411728Y0058623D01*
X0411728Y0065123D01*
X0396728Y0065123D01*
X0396728Y0117123D01*
X0411728Y0117123D01*
X0411728Y0065123D01*
X0405148Y0072036D02*
X0401478Y0072036D01*
X0404231Y0072036D02*
X0404231Y0075706D01*
X0405148Y0075706D02*
X0401478Y0075706D01*
X0401478Y0077561D02*
X0406983Y0077561D01*
X0401478Y0081231D01*
X0406983Y0081231D01*
X0406983Y0083086D02*
X0406983Y0086755D01*
X0406983Y0084921D02*
X0401478Y0084921D01*
X0401478Y0088610D02*
X0401478Y0092280D01*
X0401478Y0094135D02*
X0406983Y0094135D01*
X0401478Y0097805D01*
X0406983Y0097805D01*
X0406983Y0099660D02*
X0401478Y0099660D01*
X0401478Y0103330D02*
X0406983Y0103330D01*
X0405148Y0105185D02*
X0401478Y0105185D01*
X0401478Y0103330D02*
X0406983Y0099660D01*
X0405148Y0105185D02*
X0406983Y0107019D01*
X0405148Y0108854D01*
X0401478Y0108854D01*
X0404231Y0108854D02*
X0404231Y0105185D01*
X0411728Y0117123D02*
X0411728Y0123623D01*
X0266728Y0123623D01*
X0266728Y0088623D01*
X0253478Y0097123D02*
X0252728Y0096373D01*
X0251226Y0096373D01*
X0250476Y0097123D01*
X0250476Y0097874D01*
X0251226Y0098625D01*
X0252728Y0098625D01*
X0253478Y0099375D01*
X0253478Y0100126D01*
X0252728Y0100877D01*
X0251226Y0100877D01*
X0250476Y0100126D01*
X0249076Y0107573D02*
X0249076Y0112077D01*
X0247474Y0111326D02*
X0247474Y0108323D01*
X0246724Y0107573D01*
X0245223Y0107573D01*
X0244472Y0108323D01*
X0242870Y0109825D02*
X0239868Y0109825D01*
X0238267Y0111326D02*
X0237516Y0112077D01*
X0236015Y0112077D01*
X0235264Y0111326D01*
X0238267Y0108323D01*
X0237516Y0107573D01*
X0236015Y0107573D01*
X0235264Y0108323D01*
X0235264Y0111326D01*
X0233663Y0112077D02*
X0233663Y0109825D01*
X0232161Y0110575D01*
X0231411Y0110575D01*
X0230660Y0109825D01*
X0230660Y0108323D01*
X0231411Y0107573D01*
X0232912Y0107573D01*
X0233663Y0108323D01*
X0233663Y0112077D02*
X0230660Y0112077D01*
X0238267Y0111326D02*
X0238267Y0108323D01*
X0244472Y0111326D02*
X0245223Y0112077D01*
X0246724Y0112077D01*
X0247474Y0111326D01*
X0249076Y0109825D02*
X0252078Y0109825D01*
X0252078Y0107573D02*
X0252078Y0112077D01*
X0235830Y0100126D02*
X0235830Y0099375D01*
X0235079Y0098625D01*
X0233578Y0098625D01*
X0232827Y0097874D01*
X0232827Y0100126D02*
X0233578Y0100877D01*
X0235079Y0100877D01*
X0235830Y0100126D01*
X0228223Y0098625D02*
X0228223Y0097874D01*
X0224354Y0092626D02*
X0225855Y0091125D01*
X0223603Y0091125D01*
X0222852Y0090374D01*
X0222852Y0089623D01*
X0223603Y0088873D01*
X0225104Y0088873D01*
X0225855Y0089623D01*
X0225855Y0091125D01*
X0224354Y0092626D02*
X0222852Y0093377D01*
X0222035Y0100877D02*
X0222035Y0101627D01*
X0222852Y0085877D02*
X0222852Y0085126D01*
X0225855Y0082123D01*
X0225855Y0081373D01*
X0225855Y0085877D02*
X0222852Y0085877D01*
X0306728Y0065123D02*
X0306728Y0117123D01*
X0396728Y0117123D01*
X0406983Y0092280D02*
X0406983Y0088610D01*
X0401478Y0088610D01*
X0404231Y0088610D02*
X0404231Y0090445D01*
X0405148Y0075706D02*
X0406983Y0073871D01*
X0405148Y0072036D01*
X0396728Y0065123D02*
X0306728Y0065123D01*
D11*
X0276067Y0150288D02*
X0275000Y0150288D01*
X0273932Y0151355D01*
X0273932Y0156693D01*
X0273932Y0158828D02*
X0273932Y0159896D01*
X0271770Y0156693D02*
X0268568Y0156693D01*
X0267500Y0155625D01*
X0267500Y0152423D01*
X0265325Y0153490D02*
X0264257Y0154558D01*
X0261055Y0154558D01*
X0261055Y0155625D02*
X0261055Y0152423D01*
X0264257Y0152423D01*
X0265325Y0153490D01*
X0264257Y0156693D02*
X0262122Y0156693D01*
X0261055Y0155625D01*
X0252434Y0156693D02*
X0252434Y0150288D01*
X0252434Y0152423D02*
X0249231Y0152423D01*
X0248164Y0153490D01*
X0248164Y0155625D01*
X0249231Y0156693D01*
X0252434Y0156693D01*
X0245988Y0158828D02*
X0244921Y0158828D01*
X0244921Y0152423D01*
X0245988Y0152423D02*
X0243853Y0152423D01*
X0241691Y0153490D02*
X0241691Y0155625D01*
X0240624Y0156693D01*
X0238489Y0156693D01*
X0237421Y0155625D01*
X0237421Y0153490D01*
X0238489Y0152423D01*
X0240624Y0152423D01*
X0241691Y0153490D01*
X0235246Y0153490D02*
X0235246Y0155625D01*
X0234178Y0156693D01*
X0230976Y0156693D01*
X0228800Y0156693D02*
X0227733Y0156693D01*
X0227733Y0152423D01*
X0228800Y0152423D02*
X0226665Y0152423D01*
X0224503Y0153490D02*
X0224503Y0155625D01*
X0223436Y0156693D01*
X0220233Y0156693D01*
X0216990Y0156693D02*
X0214855Y0156693D01*
X0213788Y0155625D01*
X0213788Y0152423D01*
X0216990Y0152423D01*
X0218058Y0153490D01*
X0216990Y0154558D01*
X0213788Y0154558D01*
X0220233Y0152423D02*
X0223436Y0152423D01*
X0224503Y0153490D01*
X0227733Y0158828D02*
X0227733Y0159896D01*
X0230976Y0152423D02*
X0234178Y0152423D01*
X0235246Y0153490D01*
X0235246Y0173423D02*
X0232043Y0173423D01*
X0230976Y0174490D01*
X0230976Y0175558D01*
X0232043Y0176625D01*
X0235246Y0176625D01*
X0235246Y0173423D02*
X0235246Y0179828D01*
X0232043Y0179828D01*
X0230976Y0178761D01*
X0230976Y0177693D01*
X0232043Y0176625D01*
X0228800Y0176625D02*
X0228800Y0174490D01*
X0227733Y0173423D01*
X0225598Y0173423D01*
X0224530Y0174490D01*
X0224530Y0176625D01*
X0225598Y0177693D01*
X0227733Y0177693D01*
X0228800Y0176625D01*
X0222355Y0174490D02*
X0221287Y0175558D01*
X0218085Y0175558D01*
X0218085Y0176625D02*
X0218085Y0173423D01*
X0221287Y0173423D01*
X0222355Y0174490D01*
X0221287Y0177693D02*
X0219152Y0177693D01*
X0218085Y0176625D01*
X0215909Y0175558D02*
X0213774Y0177693D01*
X0212707Y0177693D01*
X0210538Y0176625D02*
X0210538Y0174490D01*
X0209471Y0173423D01*
X0206268Y0173423D01*
X0206268Y0179828D01*
X0206268Y0177693D02*
X0209471Y0177693D01*
X0210538Y0176625D01*
X0215909Y0177693D02*
X0215909Y0173423D01*
X0243853Y0173423D02*
X0244921Y0174490D01*
X0244921Y0178761D01*
X0245988Y0177693D02*
X0243853Y0177693D01*
X0248164Y0176625D02*
X0248164Y0173423D01*
X0248164Y0176625D02*
X0249231Y0177693D01*
X0252434Y0177693D01*
X0252434Y0173423D01*
X0254609Y0175558D02*
X0254609Y0176625D01*
X0255677Y0177693D01*
X0257812Y0177693D01*
X0258879Y0176625D01*
X0258879Y0174490D01*
X0257812Y0173423D01*
X0255677Y0173423D01*
X0254609Y0175558D02*
X0258879Y0175558D01*
X0261055Y0176625D02*
X0261055Y0173423D01*
X0263190Y0173423D02*
X0263190Y0176625D01*
X0262122Y0177693D01*
X0261055Y0176625D01*
X0263190Y0176625D02*
X0264257Y0177693D01*
X0265325Y0177693D01*
X0265325Y0173423D01*
X0267500Y0174490D02*
X0267500Y0176625D01*
X0268568Y0177693D01*
X0271770Y0177693D01*
X0271770Y0171288D01*
X0271770Y0173423D02*
X0268568Y0173423D01*
X0267500Y0174490D01*
X0273946Y0174490D02*
X0273946Y0176625D01*
X0275013Y0177693D01*
X0277148Y0177693D01*
X0278216Y0176625D01*
X0278216Y0174490D01*
X0277148Y0173423D01*
X0275013Y0173423D01*
X0273946Y0174490D01*
X0280378Y0173423D02*
X0282513Y0173423D01*
X0281445Y0173423D02*
X0281445Y0179828D01*
X0282513Y0179828D01*
X0284688Y0176625D02*
X0284688Y0175558D01*
X0288958Y0175558D01*
X0288958Y0176625D02*
X0288958Y0174490D01*
X0287891Y0173423D01*
X0285756Y0173423D01*
X0284688Y0176625D02*
X0285756Y0177693D01*
X0287891Y0177693D01*
X0288958Y0176625D01*
X0291134Y0177693D02*
X0293269Y0173423D01*
X0295404Y0177693D01*
X0297579Y0176625D02*
X0297579Y0175558D01*
X0301849Y0175558D01*
X0301849Y0176625D02*
X0301849Y0174490D01*
X0300782Y0173423D01*
X0298647Y0173423D01*
X0297579Y0176625D02*
X0298647Y0177693D01*
X0300782Y0177693D01*
X0301849Y0176625D01*
X0304025Y0174490D02*
X0304025Y0178761D01*
X0305092Y0179828D01*
X0308295Y0179828D01*
X0308295Y0173423D01*
X0305092Y0173423D01*
X0304025Y0174490D01*
X0304011Y0169328D02*
X0306146Y0169328D01*
X0305079Y0169328D02*
X0305079Y0162923D01*
X0306146Y0162923D02*
X0304011Y0162923D01*
X0301849Y0163990D02*
X0300782Y0162923D01*
X0297579Y0162923D01*
X0295404Y0162923D02*
X0291134Y0162923D01*
X0293269Y0166125D02*
X0295404Y0166125D01*
X0297579Y0167193D02*
X0300782Y0167193D01*
X0301849Y0166125D01*
X0301849Y0163990D01*
X0305092Y0158828D02*
X0304025Y0157761D01*
X0304025Y0155625D01*
X0305092Y0154558D01*
X0308295Y0154558D01*
X0308295Y0152423D02*
X0308295Y0158828D01*
X0305092Y0158828D01*
X0306160Y0154558D02*
X0304025Y0152423D01*
X0301849Y0153490D02*
X0300782Y0154558D01*
X0297579Y0154558D01*
X0297579Y0155625D02*
X0297579Y0152423D01*
X0300782Y0152423D01*
X0301849Y0153490D01*
X0300782Y0156693D02*
X0298647Y0156693D01*
X0297579Y0155625D01*
X0295404Y0156693D02*
X0291134Y0156693D01*
X0295404Y0152423D01*
X0291134Y0152423D01*
X0286823Y0152423D02*
X0288958Y0156693D01*
X0284688Y0156693D02*
X0286823Y0152423D01*
X0282513Y0153490D02*
X0282513Y0155625D01*
X0281445Y0156693D01*
X0279310Y0156693D01*
X0278243Y0155625D01*
X0278243Y0153490D01*
X0279310Y0152423D01*
X0281445Y0152423D01*
X0282513Y0153490D01*
X0271770Y0152423D02*
X0271770Y0156693D01*
X0291134Y0169328D02*
X0295404Y0169328D01*
X0295404Y0162923D01*
X0314767Y0167193D02*
X0316902Y0162923D01*
X0319037Y0167193D01*
X0321213Y0166125D02*
X0322280Y0167193D01*
X0324415Y0167193D01*
X0325483Y0166125D01*
X0325483Y0163990D01*
X0324415Y0162923D01*
X0322280Y0162923D01*
X0321213Y0165058D02*
X0325483Y0165058D01*
X0327658Y0163990D02*
X0327658Y0168261D01*
X0328726Y0169328D01*
X0331928Y0169328D01*
X0331928Y0162923D01*
X0328726Y0162923D01*
X0327658Y0163990D01*
X0321213Y0165058D02*
X0321213Y0166125D01*
X0321186Y0158828D02*
X0316916Y0158828D01*
X0319051Y0158828D02*
X0319051Y0152423D01*
X0323361Y0153490D02*
X0323361Y0155625D01*
X0324429Y0156693D01*
X0326564Y0156693D01*
X0327631Y0155625D01*
X0327631Y0153490D01*
X0326564Y0152423D01*
X0324429Y0152423D01*
X0323361Y0153490D01*
X0329793Y0152423D02*
X0331928Y0152423D01*
X0330861Y0152423D02*
X0330861Y0158828D01*
X0331928Y0158828D02*
X0329793Y0158828D01*
X0343004Y0165493D02*
X0345139Y0163358D01*
X0345139Y0162290D02*
X0345139Y0161223D01*
X0349436Y0161223D02*
X0351571Y0161223D01*
X0350503Y0161223D02*
X0350503Y0165493D01*
X0351571Y0165493D01*
X0353733Y0165493D02*
X0355868Y0165493D01*
X0354800Y0166561D02*
X0354800Y0162290D01*
X0353733Y0161223D01*
X0358043Y0161223D02*
X0358043Y0164425D01*
X0359111Y0165493D01*
X0361246Y0165493D01*
X0361246Y0163358D02*
X0358043Y0163358D01*
X0358043Y0161223D02*
X0361246Y0161223D01*
X0362313Y0162290D01*
X0361246Y0163358D01*
X0364489Y0161223D02*
X0364489Y0167628D01*
X0366624Y0165493D01*
X0368759Y0167628D01*
X0368759Y0161223D01*
X0368786Y0157128D02*
X0373056Y0157128D01*
X0373056Y0150723D01*
X0368786Y0150723D01*
X0370921Y0153925D02*
X0373056Y0153925D01*
X0375231Y0151790D02*
X0376299Y0150723D01*
X0378434Y0150723D01*
X0379501Y0151790D01*
X0379501Y0156061D01*
X0378434Y0157128D01*
X0376299Y0157128D01*
X0375231Y0156061D01*
X0381663Y0157128D02*
X0383798Y0157128D01*
X0382731Y0157128D02*
X0382731Y0150723D01*
X0383798Y0150723D02*
X0381663Y0150723D01*
X0385974Y0151790D02*
X0387041Y0150723D01*
X0389176Y0150723D01*
X0390244Y0151790D01*
X0392419Y0150723D02*
X0392419Y0154993D01*
X0394554Y0157128D01*
X0396689Y0154993D01*
X0396689Y0150723D01*
X0398865Y0151790D02*
X0398865Y0156061D01*
X0399932Y0157128D01*
X0402067Y0157128D01*
X0403135Y0156061D01*
X0403135Y0154993D01*
X0402067Y0153925D01*
X0398865Y0153925D01*
X0398865Y0151790D02*
X0399932Y0150723D01*
X0402067Y0150723D01*
X0403135Y0151790D01*
X0396689Y0153925D02*
X0392419Y0153925D01*
X0390244Y0156061D02*
X0389176Y0157128D01*
X0387041Y0157128D01*
X0385974Y0156061D01*
X0385974Y0154993D01*
X0387041Y0153925D01*
X0385974Y0152858D01*
X0385974Y0151790D01*
X0387041Y0153925D02*
X0388109Y0153925D01*
X0387028Y0161223D02*
X0383825Y0161223D01*
X0381650Y0162290D02*
X0380582Y0163358D01*
X0377380Y0163358D01*
X0377380Y0164425D02*
X0377380Y0161223D01*
X0380582Y0161223D01*
X0381650Y0162290D01*
X0380582Y0165493D02*
X0378447Y0165493D01*
X0377380Y0164425D01*
X0383825Y0165493D02*
X0387028Y0165493D01*
X0388095Y0164425D01*
X0388095Y0162290D01*
X0387028Y0161223D01*
X0390257Y0161223D02*
X0392392Y0161223D01*
X0391325Y0161223D02*
X0391325Y0165493D01*
X0392392Y0165493D01*
X0394568Y0165493D02*
X0396703Y0161223D01*
X0398838Y0165493D01*
X0401000Y0167628D02*
X0403135Y0167628D01*
X0402067Y0167628D02*
X0402067Y0161223D01*
X0401000Y0161223D02*
X0403135Y0161223D01*
X0391325Y0167628D02*
X0391325Y0168696D01*
X0392392Y0171723D02*
X0392392Y0175993D01*
X0390257Y0175993D02*
X0389190Y0175993D01*
X0390257Y0175993D02*
X0392392Y0173858D01*
X0394568Y0175993D02*
X0398838Y0171723D01*
X0394568Y0171723D01*
X0401000Y0171723D02*
X0403135Y0171723D01*
X0402067Y0171723D02*
X0402067Y0178128D01*
X0401000Y0178128D02*
X0403135Y0178128D01*
X0398838Y0175993D02*
X0394568Y0175993D01*
X0387021Y0172790D02*
X0385954Y0173858D01*
X0382751Y0173858D01*
X0382751Y0174925D02*
X0382751Y0171723D01*
X0385954Y0171723D01*
X0387021Y0172790D01*
X0383818Y0175993D02*
X0382751Y0174925D01*
X0383818Y0175993D02*
X0385954Y0175993D01*
X0380576Y0174925D02*
X0379508Y0175993D01*
X0376305Y0175993D01*
X0376305Y0178128D02*
X0376305Y0171723D01*
X0379508Y0171723D01*
X0380576Y0172790D01*
X0380576Y0174925D01*
X0374130Y0175993D02*
X0373063Y0175993D01*
X0373063Y0171723D01*
X0374130Y0171723D02*
X0371995Y0171723D01*
X0369833Y0172790D02*
X0369833Y0174925D01*
X0368766Y0175993D01*
X0366630Y0175993D01*
X0365563Y0174925D01*
X0365563Y0172790D01*
X0366630Y0171723D01*
X0368766Y0171723D01*
X0369833Y0172790D01*
X0373063Y0178128D02*
X0373063Y0179196D01*
X0373056Y0192723D02*
X0368786Y0192723D01*
X0370921Y0195925D02*
X0373056Y0195925D01*
X0375231Y0193790D02*
X0376299Y0192723D01*
X0378434Y0192723D01*
X0379501Y0193790D01*
X0379501Y0198061D01*
X0378434Y0199128D01*
X0376299Y0199128D01*
X0375231Y0198061D01*
X0373056Y0199128D02*
X0373056Y0192723D01*
X0373056Y0199128D02*
X0368786Y0199128D01*
X0368759Y0203223D02*
X0368759Y0209628D01*
X0366624Y0207493D01*
X0364489Y0209628D01*
X0364489Y0203223D01*
X0362313Y0204290D02*
X0361246Y0203223D01*
X0358043Y0203223D01*
X0358043Y0206425D01*
X0359111Y0207493D01*
X0361246Y0207493D01*
X0361246Y0205358D02*
X0358043Y0205358D01*
X0355868Y0207493D02*
X0353733Y0207493D01*
X0354800Y0208561D02*
X0354800Y0204290D01*
X0353733Y0203223D01*
X0351571Y0203223D02*
X0349436Y0203223D01*
X0350503Y0203223D02*
X0350503Y0207493D01*
X0351571Y0207493D01*
X0350503Y0209628D02*
X0350503Y0210696D01*
X0347274Y0206425D02*
X0346206Y0207493D01*
X0343004Y0207493D01*
X0347274Y0206425D02*
X0347274Y0204290D01*
X0346206Y0203223D01*
X0343004Y0203223D01*
X0360192Y0212655D02*
X0361259Y0211588D01*
X0362327Y0211588D01*
X0363394Y0213723D02*
X0360192Y0213723D01*
X0360192Y0212655D02*
X0360192Y0217993D01*
X0364462Y0217993D02*
X0364462Y0214790D01*
X0363394Y0213723D01*
X0366637Y0214790D02*
X0366637Y0216925D01*
X0367705Y0217993D01*
X0370907Y0217993D01*
X0370907Y0220128D02*
X0370907Y0213723D01*
X0367705Y0213723D01*
X0366637Y0214790D01*
X0379528Y0215858D02*
X0383798Y0215858D01*
X0383798Y0216925D02*
X0383798Y0214790D01*
X0382731Y0213723D01*
X0380596Y0213723D01*
X0379528Y0215858D02*
X0379528Y0216925D01*
X0380596Y0217993D01*
X0382731Y0217993D01*
X0383798Y0216925D01*
X0385974Y0217993D02*
X0389176Y0217993D01*
X0390244Y0216925D01*
X0390244Y0214790D01*
X0389176Y0213723D01*
X0385974Y0213723D01*
X0385974Y0220128D01*
X0392419Y0216925D02*
X0392419Y0213723D01*
X0395622Y0213723D01*
X0396689Y0214790D01*
X0395622Y0215858D01*
X0392419Y0215858D01*
X0392419Y0216925D02*
X0393487Y0217993D01*
X0395622Y0217993D01*
X0398865Y0220128D02*
X0398865Y0213723D01*
X0403135Y0213723D02*
X0403135Y0220128D01*
X0401000Y0217993D01*
X0398865Y0220128D01*
X0391325Y0210696D02*
X0391325Y0209628D01*
X0391325Y0207493D02*
X0391325Y0203223D01*
X0392392Y0203223D02*
X0390257Y0203223D01*
X0388095Y0204290D02*
X0387028Y0203223D01*
X0383825Y0203223D01*
X0381650Y0204290D02*
X0380582Y0203223D01*
X0377380Y0203223D01*
X0377380Y0206425D01*
X0378447Y0207493D01*
X0380582Y0207493D01*
X0380582Y0205358D02*
X0377380Y0205358D01*
X0380582Y0205358D02*
X0381650Y0204290D01*
X0383825Y0207493D02*
X0387028Y0207493D01*
X0388095Y0206425D01*
X0388095Y0204290D01*
X0391325Y0207493D02*
X0392392Y0207493D01*
X0394568Y0207493D02*
X0396703Y0203223D01*
X0398838Y0207493D01*
X0401000Y0209628D02*
X0403135Y0209628D01*
X0402067Y0209628D02*
X0402067Y0203223D01*
X0401000Y0203223D02*
X0403135Y0203223D01*
X0402067Y0199128D02*
X0403135Y0198061D01*
X0403135Y0196993D01*
X0402067Y0195925D01*
X0398865Y0195925D01*
X0398865Y0193790D02*
X0398865Y0198061D01*
X0399932Y0199128D01*
X0402067Y0199128D01*
X0396689Y0196993D02*
X0394554Y0199128D01*
X0392419Y0196993D01*
X0392419Y0192723D01*
X0390244Y0193790D02*
X0389176Y0192723D01*
X0387041Y0192723D01*
X0385974Y0193790D01*
X0385974Y0194858D01*
X0387041Y0195925D01*
X0388109Y0195925D01*
X0387041Y0195925D02*
X0385974Y0196993D01*
X0385974Y0198061D01*
X0387041Y0199128D01*
X0389176Y0199128D01*
X0390244Y0198061D01*
X0392419Y0195925D02*
X0396689Y0195925D01*
X0396689Y0196993D02*
X0396689Y0192723D01*
X0398865Y0193790D02*
X0399932Y0192723D01*
X0402067Y0192723D01*
X0403135Y0193790D01*
X0383798Y0192723D02*
X0381663Y0192723D01*
X0382731Y0192723D02*
X0382731Y0199128D01*
X0383798Y0199128D02*
X0381663Y0199128D01*
X0362313Y0204290D02*
X0361246Y0205358D01*
X0331928Y0190328D02*
X0331928Y0183923D01*
X0328726Y0183923D01*
X0327658Y0184990D01*
X0327658Y0189261D01*
X0328726Y0190328D01*
X0331928Y0190328D01*
X0325483Y0187125D02*
X0324415Y0188193D01*
X0322280Y0188193D01*
X0321213Y0187125D01*
X0321213Y0186058D01*
X0325483Y0186058D01*
X0325483Y0187125D02*
X0325483Y0184990D01*
X0324415Y0183923D01*
X0322280Y0183923D01*
X0321186Y0179828D02*
X0316916Y0179828D01*
X0319051Y0179828D02*
X0319051Y0173423D01*
X0323361Y0174490D02*
X0323361Y0176625D01*
X0324429Y0177693D01*
X0326564Y0177693D01*
X0327631Y0176625D01*
X0327631Y0174490D01*
X0326564Y0173423D01*
X0324429Y0173423D01*
X0323361Y0174490D01*
X0329793Y0173423D02*
X0331928Y0173423D01*
X0330861Y0173423D02*
X0330861Y0179828D01*
X0331928Y0179828D02*
X0329793Y0179828D01*
X0316902Y0183923D02*
X0319037Y0188193D01*
X0314767Y0188193D02*
X0316902Y0183923D01*
X0312592Y0183923D02*
X0310457Y0183923D01*
X0311524Y0183923D02*
X0311524Y0190328D01*
X0310457Y0190328D02*
X0312592Y0190328D01*
X0308295Y0187125D02*
X0308295Y0184990D01*
X0307227Y0183923D01*
X0304025Y0183923D01*
X0301849Y0183923D02*
X0297579Y0183923D01*
X0299714Y0187125D02*
X0301849Y0187125D01*
X0304025Y0188193D02*
X0307227Y0188193D01*
X0308295Y0187125D01*
X0301849Y0190328D02*
X0301849Y0183923D01*
X0301849Y0190328D02*
X0297579Y0190328D01*
X0343004Y0166561D02*
X0343004Y0165493D01*
X0343004Y0166561D02*
X0344071Y0167628D01*
X0346206Y0167628D01*
X0347274Y0166561D01*
X0350503Y0167628D02*
X0350503Y0168696D01*
X0067728Y0108923D02*
X0067728Y0107323D01*
X0067728Y0105023D01*
X0066629Y0105723D02*
X0066607Y0105786D01*
X0066589Y0105851D01*
X0066575Y0105916D01*
X0066564Y0105982D01*
X0066557Y0106049D01*
X0066554Y0106116D01*
X0066555Y0106183D01*
X0066559Y0106249D01*
X0066567Y0106316D01*
X0066579Y0106382D01*
X0066595Y0106447D01*
X0066614Y0106511D01*
X0066637Y0106574D01*
X0066663Y0106635D01*
X0066693Y0106695D01*
X0066726Y0106753D01*
X0066763Y0106809D01*
X0066802Y0106863D01*
X0066844Y0106915D01*
X0066890Y0106964D01*
X0066938Y0107011D01*
X0066988Y0107055D01*
X0067041Y0107096D01*
X0067096Y0107134D01*
X0067154Y0107168D01*
X0067213Y0107200D01*
X0067273Y0107228D01*
X0067336Y0107252D01*
X0067399Y0107273D01*
X0067464Y0107291D01*
X0067529Y0107304D01*
X0067595Y0107314D01*
X0067662Y0107320D01*
X0067729Y0107323D01*
X0067728Y0108923D02*
X0064128Y0108923D01*
X0059328Y0108923D02*
X0055728Y0108923D01*
X0055728Y0105023D01*
X0060428Y0103323D02*
X0063028Y0103323D01*
D12*
X0068062Y0098673D02*
X0071198Y0101809D01*
X0069630Y0101809D02*
X0069630Y0098673D01*
X0071198Y0098673D02*
X0068062Y0101809D01*
X0068062Y0100241D02*
X0071198Y0100241D01*
D13*
X0280563Y0097659D02*
X0280563Y0094590D01*
X0281330Y0093823D01*
X0283632Y0093823D01*
X0283632Y0098427D01*
X0281330Y0098427D01*
X0280563Y0097659D01*
X0285167Y0098427D02*
X0285167Y0093823D01*
X0288236Y0098427D01*
X0288236Y0093823D01*
X0289771Y0094590D02*
X0289771Y0096125D01*
X0291306Y0096125D01*
X0292840Y0097659D02*
X0292840Y0094590D01*
X0292073Y0093823D01*
X0290538Y0093823D01*
X0289771Y0094590D01*
X0289771Y0097659D02*
X0290538Y0098427D01*
X0292073Y0098427D01*
X0292840Y0097659D01*
X0291306Y0104590D02*
X0291306Y0107659D01*
X0292840Y0106125D02*
X0289771Y0106125D01*
X0288236Y0106125D02*
X0286702Y0106892D01*
X0285934Y0106892D01*
X0285167Y0106125D01*
X0285167Y0104590D01*
X0285934Y0103823D01*
X0287469Y0103823D01*
X0288236Y0104590D01*
X0288236Y0106125D02*
X0288236Y0108427D01*
X0285167Y0108427D01*
X0283632Y0108427D02*
X0283632Y0105357D01*
X0282098Y0103823D01*
X0280563Y0105357D01*
X0280563Y0108427D01*
X0280563Y0113823D02*
X0280563Y0118427D01*
X0283632Y0118427D02*
X0280563Y0113823D01*
X0283632Y0113823D02*
X0283632Y0118427D01*
X0285167Y0118427D02*
X0288236Y0118427D01*
X0288236Y0113823D01*
X0285167Y0113823D01*
X0286702Y0116125D02*
X0288236Y0116125D01*
X0288236Y0088427D02*
X0285167Y0088427D01*
X0286702Y0088427D02*
X0286702Y0083823D01*
X0283632Y0083823D02*
X0280563Y0088427D01*
X0283632Y0088427D02*
X0280563Y0083823D01*
X0280563Y0078427D02*
X0283632Y0073823D01*
X0285167Y0073823D02*
X0286702Y0075357D01*
X0285934Y0075357D02*
X0288236Y0075357D01*
X0288236Y0073823D02*
X0288236Y0078427D01*
X0285934Y0078427D01*
X0285167Y0077659D01*
X0285167Y0076125D01*
X0285934Y0075357D01*
X0283632Y0078427D02*
X0280563Y0073823D01*
X0280563Y0068427D02*
X0283632Y0068427D01*
X0283632Y0063823D01*
X0280563Y0063823D01*
X0282098Y0066125D02*
X0283632Y0066125D01*
X0285167Y0068427D02*
X0288236Y0068427D01*
X0286702Y0068427D02*
X0286702Y0063823D01*
X0289771Y0063823D02*
X0289771Y0066892D01*
X0291306Y0068427D01*
X0292840Y0066892D01*
X0292840Y0063823D01*
X0292840Y0066125D02*
X0289771Y0066125D01*
X0294375Y0068427D02*
X0297444Y0068427D01*
X0295909Y0068427D02*
X0295909Y0063823D01*
X0298979Y0064590D02*
X0299746Y0063823D01*
X0301281Y0063823D01*
X0302048Y0064590D01*
X0301281Y0066125D02*
X0299746Y0066125D01*
X0298979Y0065357D01*
X0298979Y0064590D01*
X0301281Y0066125D02*
X0302048Y0066892D01*
X0302048Y0067659D01*
X0301281Y0068427D01*
X0299746Y0068427D01*
X0298979Y0067659D01*
D14*
X0150497Y0223351D02*
X0149564Y0223872D01*
X0148620Y0224371D01*
X0147663Y0224846D01*
X0146696Y0225298D01*
X0145717Y0225726D01*
X0144728Y0226131D01*
X0143730Y0226511D01*
X0142723Y0226866D01*
X0141707Y0227197D01*
X0140684Y0227503D01*
X0139653Y0227784D01*
X0138616Y0228039D01*
X0137573Y0228269D01*
X0136525Y0228474D01*
X0135472Y0228653D01*
X0134415Y0228806D01*
X0133354Y0228934D01*
X0132291Y0229035D01*
X0131225Y0229111D01*
X0130158Y0229160D01*
X0129091Y0229184D01*
X0128022Y0229181D01*
X0126955Y0229153D01*
X0125888Y0229098D01*
X0124823Y0229017D01*
X0123760Y0228910D01*
X0122700Y0228778D01*
X0121644Y0228619D01*
X0120592Y0228435D01*
X0119544Y0228225D01*
X0118502Y0227990D01*
X0117467Y0227729D01*
X0116437Y0227443D01*
X0115416Y0227132D01*
X0114402Y0226797D01*
X0113396Y0226436D01*
X0112400Y0226051D01*
X0111413Y0225642D01*
X0110437Y0225209D01*
X0109471Y0224752D01*
X0108517Y0224272D01*
X0107575Y0223769D01*
X0106645Y0223243D01*
X0105729Y0222694D01*
X0104826Y0222123D01*
X0103937Y0221530D01*
X0103064Y0220916D01*
X0102205Y0220281D01*
X0101362Y0219625D01*
X0100536Y0218948D01*
X0099726Y0218252D01*
X0098933Y0217536D01*
X0098158Y0216800D01*
X0097402Y0216046D01*
X0096664Y0215274D01*
X0095945Y0214484D01*
X0095245Y0213677D01*
X0094566Y0212853D01*
X0093906Y0212013D01*
X0093268Y0211156D01*
X0092650Y0210285D01*
X0092054Y0209398D01*
X0091480Y0208498D01*
X0090928Y0207583D01*
X0090399Y0206656D01*
X0089892Y0205715D01*
X0089408Y0204763D01*
X0088948Y0203799D01*
X0088511Y0202824D01*
X0088099Y0201839D01*
X0087710Y0200844D01*
X0087346Y0199840D01*
X0087007Y0198827D01*
X0086692Y0197806D01*
X0086402Y0196778D01*
X0086138Y0195743D01*
X0085899Y0194702D01*
X0085685Y0193656D01*
X0085497Y0192604D01*
X0085334Y0191549D01*
X0085198Y0190489D01*
X0085087Y0189427D01*
X0085003Y0188362D01*
X0084944Y0187296D01*
X0084911Y0186228D01*
X0084905Y0185160D01*
X0084924Y0184092D01*
X0084970Y0183025D01*
X0085042Y0181959D01*
X0085139Y0180895D01*
X0085263Y0179834D01*
X0085412Y0178777D01*
X0085587Y0177723D01*
X0085788Y0176674D01*
X0086015Y0175630D01*
X0086266Y0174592D01*
X0086543Y0173560D01*
X0086846Y0172536D01*
X0087173Y0171519D01*
X0087524Y0170511D01*
X0087524Y0170510D02*
X0106757Y0147589D01*
X0107690Y0147068D01*
X0108634Y0146569D01*
X0109591Y0146094D01*
X0110558Y0145642D01*
X0111537Y0145214D01*
X0112526Y0144809D01*
X0113524Y0144429D01*
X0114531Y0144074D01*
X0115547Y0143743D01*
X0116570Y0143437D01*
X0117601Y0143156D01*
X0118638Y0142901D01*
X0119681Y0142671D01*
X0120729Y0142466D01*
X0121782Y0142287D01*
X0122839Y0142134D01*
X0123900Y0142006D01*
X0124963Y0141905D01*
X0126029Y0141829D01*
X0127096Y0141780D01*
X0128163Y0141756D01*
X0129232Y0141759D01*
X0130299Y0141787D01*
X0131366Y0141842D01*
X0132431Y0141923D01*
X0133494Y0142030D01*
X0134554Y0142162D01*
X0135610Y0142321D01*
X0136662Y0142505D01*
X0137710Y0142715D01*
X0138752Y0142950D01*
X0139787Y0143211D01*
X0140817Y0143497D01*
X0141838Y0143808D01*
X0142852Y0144143D01*
X0143858Y0144504D01*
X0144854Y0144889D01*
X0145841Y0145298D01*
X0146817Y0145731D01*
X0147783Y0146188D01*
X0148737Y0146668D01*
X0149679Y0147171D01*
X0150609Y0147697D01*
X0151525Y0148246D01*
X0152428Y0148817D01*
X0153317Y0149410D01*
X0154190Y0150024D01*
X0155049Y0150659D01*
X0155892Y0151315D01*
X0156718Y0151992D01*
X0157528Y0152688D01*
X0158321Y0153404D01*
X0159096Y0154140D01*
X0159852Y0154894D01*
X0160590Y0155666D01*
X0161309Y0156456D01*
X0162009Y0157263D01*
X0162688Y0158087D01*
X0163348Y0158927D01*
X0163986Y0159784D01*
X0164604Y0160655D01*
X0165200Y0161542D01*
X0165774Y0162442D01*
X0166326Y0163357D01*
X0166855Y0164284D01*
X0167362Y0165225D01*
X0167846Y0166177D01*
X0168306Y0167141D01*
X0168743Y0168116D01*
X0169155Y0169101D01*
X0169544Y0170096D01*
X0169908Y0171100D01*
X0170247Y0172113D01*
X0170562Y0173134D01*
X0170852Y0174162D01*
X0171116Y0175197D01*
X0171355Y0176238D01*
X0171569Y0177284D01*
X0171757Y0178336D01*
X0171920Y0179391D01*
X0172056Y0180451D01*
X0172167Y0181513D01*
X0172251Y0182578D01*
X0172310Y0183644D01*
X0172343Y0184712D01*
X0172349Y0185780D01*
X0172330Y0186848D01*
X0172284Y0187915D01*
X0172212Y0188981D01*
X0172115Y0190045D01*
X0171991Y0191106D01*
X0171842Y0192163D01*
X0171667Y0193217D01*
X0171466Y0194266D01*
X0171239Y0195310D01*
X0170988Y0196348D01*
X0170711Y0197380D01*
X0170408Y0198404D01*
X0170081Y0199421D01*
X0169730Y0200429D01*
X0178717Y0207971D01*
X0159484Y0230892D01*
X0150496Y0223350D01*
M02*
